<svg xmlns="http://www.w3.org/2000/svg" xmlns:xlink="http://www.w3.org/1999/xlink" width="700" height="400" viewBox="0 0 2800 1600">
<defs>
  <clipPath id="clip410">
    <rect x="0" y="0" width="2800" height="1600"></rect>
  </clipPath>
</defs>
<path clip-path="url(#clip410)" d="
M0 1600 L2800 1600 L2800 0 L0 0  Z
  " fill="#ffffff" fill-rule="evenodd" fill-opacity="1"></path>
<defs>
  <clipPath id="clip411">
    <rect x="560" y="0" width="1961" height="1600"></rect>
  </clipPath>
</defs>
<path clip-path="url(#clip410)" d="
M231.337 1434.91 L1352.76 1434.91 L1352.76 114.832 L231.337 114.832  Z
  " fill="#ffffff" fill-rule="evenodd" fill-opacity="1"></path>
<defs>
  <clipPath id="clip412">
    <rect x="231" y="114" width="1122" height="1321"></rect>
  </clipPath>
</defs>
<polyline clip-path="url(#clip412)" style="stroke:#000000; stroke-linecap:round; stroke-linejoin:round; stroke-width:2; stroke-opacity:0.1; fill:none" points="
  293.017,1434.91 293.017,114.832 
  "></polyline>
<polyline clip-path="url(#clip412)" style="stroke:#000000; stroke-linecap:round; stroke-linejoin:round; stroke-width:2; stroke-opacity:0.1; fill:none" points="
  570.256,1434.91 570.256,114.832 
  "></polyline>
<polyline clip-path="url(#clip412)" style="stroke:#000000; stroke-linecap:round; stroke-linejoin:round; stroke-width:2; stroke-opacity:0.1; fill:none" points="
  847.494,1434.91 847.494,114.832 
  "></polyline>
<polyline clip-path="url(#clip412)" style="stroke:#000000; stroke-linecap:round; stroke-linejoin:round; stroke-width:2; stroke-opacity:0.1; fill:none" points="
  1124.73,1434.91 1124.73,114.832 
  "></polyline>
<polyline clip-path="url(#clip410)" style="stroke:#000000; stroke-linecap:round; stroke-linejoin:round; stroke-width:4; stroke-opacity:1; fill:none" points="
  231.337,1434.91 1352.76,1434.91 
  "></polyline>
<polyline clip-path="url(#clip410)" style="stroke:#000000; stroke-linecap:round; stroke-linejoin:round; stroke-width:4; stroke-opacity:1; fill:none" points="
  293.017,1434.91 293.017,1416.01 
  "></polyline>
<polyline clip-path="url(#clip410)" style="stroke:#000000; stroke-linecap:round; stroke-linejoin:round; stroke-width:4; stroke-opacity:1; fill:none" points="
  570.256,1434.91 570.256,1416.01 
  "></polyline>
<polyline clip-path="url(#clip410)" style="stroke:#000000; stroke-linecap:round; stroke-linejoin:round; stroke-width:4; stroke-opacity:1; fill:none" points="
  847.494,1434.91 847.494,1416.01 
  "></polyline>
<polyline clip-path="url(#clip410)" style="stroke:#000000; stroke-linecap:round; stroke-linejoin:round; stroke-width:4; stroke-opacity:1; fill:none" points="
  1124.73,1434.91 1124.73,1416.01 
  "></polyline>
<path clip-path="url(#clip410)" d="M293.017 1469.02 Q289.406 1469.02 287.577 1472.59 Q285.772 1476.13 285.772 1483.26 Q285.772 1490.37 287.577 1493.93 Q289.406 1497.47 293.017 1497.47 Q296.651 1497.47 298.457 1493.93 Q300.285 1490.37 300.285 1483.26 Q300.285 1476.13 298.457 1472.59 Q296.651 1469.02 293.017 1469.02 M293.017 1465.32 Q298.827 1465.32 301.883 1469.93 Q304.961 1474.51 304.961 1483.26 Q304.961 1491.99 301.883 1496.59 Q298.827 1501.18 293.017 1501.18 Q287.207 1501.18 284.128 1496.59 Q281.073 1491.99 281.073 1483.26 Q281.073 1474.51 284.128 1469.93 Q287.207 1465.32 293.017 1465.32 Z" fill="#000000" fill-rule="evenodd" fill-opacity="1"></path><path clip-path="url(#clip410)" d="M560.638 1496.57 L568.276 1496.57 L568.276 1470.2 L559.966 1471.87 L559.966 1467.61 L568.23 1465.95 L572.906 1465.95 L572.906 1496.57 L580.545 1496.57 L580.545 1500.51 L560.638 1500.51 L560.638 1496.57 Z" fill="#000000" fill-rule="evenodd" fill-opacity="1"></path><path clip-path="url(#clip410)" d="M842.147 1496.57 L858.466 1496.57 L858.466 1500.51 L836.522 1500.51 L836.522 1496.57 Q839.184 1493.82 843.767 1489.19 Q848.374 1484.53 849.554 1483.19 Q851.8 1480.67 852.679 1478.93 Q853.582 1477.17 853.582 1475.48 Q853.582 1472.73 851.638 1470.99 Q849.716 1469.26 846.614 1469.26 Q844.415 1469.26 841.962 1470.02 Q839.531 1470.78 836.753 1472.33 L836.753 1467.61 Q839.577 1466.48 842.031 1465.9 Q844.485 1465.32 846.522 1465.32 Q851.892 1465.32 855.087 1468.01 Q858.281 1470.69 858.281 1475.18 Q858.281 1477.31 857.471 1479.23 Q856.684 1481.13 854.577 1483.72 Q853.999 1484.39 850.897 1487.61 Q847.795 1490.81 842.147 1496.57 Z" fill="#000000" fill-rule="evenodd" fill-opacity="1"></path><path clip-path="url(#clip410)" d="M1128.98 1481.87 Q1132.34 1482.59 1134.21 1484.86 Q1136.11 1487.13 1136.11 1490.46 Q1136.11 1495.58 1132.59 1498.38 Q1129.07 1501.18 1122.59 1501.18 Q1120.42 1501.18 1118.1 1500.74 Q1115.81 1500.32 1113.36 1499.46 L1113.36 1494.95 Q1115.3 1496.08 1117.61 1496.66 Q1119.93 1497.24 1122.45 1497.24 Q1126.85 1497.24 1129.14 1495.51 Q1131.46 1493.77 1131.46 1490.46 Q1131.46 1487.4 1129.3 1485.69 Q1127.17 1483.95 1123.36 1483.95 L1119.33 1483.95 L1119.33 1480.11 L1123.54 1480.11 Q1126.99 1480.11 1128.82 1478.75 Q1130.65 1477.36 1130.65 1474.76 Q1130.65 1472.1 1128.75 1470.69 Q1126.87 1469.26 1123.36 1469.26 Q1121.43 1469.26 1119.24 1469.67 Q1117.04 1470.09 1114.4 1470.97 L1114.4 1466.8 Q1117.06 1466.06 1119.37 1465.69 Q1121.71 1465.32 1123.77 1465.32 Q1129.1 1465.32 1132.2 1467.75 Q1135.3 1470.16 1135.3 1474.28 Q1135.3 1477.15 1133.66 1479.14 Q1132.01 1481.11 1128.98 1481.87 Z" fill="#000000" fill-rule="evenodd" fill-opacity="1"></path><path clip-path="url(#clip410)" d="M702.385 1551.17 L702.385 1556.71 Q699.903 1555.44 697.229 1554.8 Q694.556 1554.16 691.691 1554.16 Q687.331 1554.16 685.134 1555.5 Q682.97 1556.84 682.97 1559.51 Q682.97 1561.55 684.53 1562.73 Q686.089 1563.87 690.8 1564.92 L692.805 1565.37 Q699.043 1566.7 701.653 1569.16 Q704.295 1571.57 704.295 1575.93 Q704.295 1580.9 700.348 1583.8 Q696.433 1586.69 689.559 1586.69 Q686.694 1586.69 683.575 1586.12 Q680.487 1585.58 677.05 1584.46 L677.05 1578.42 Q680.296 1580.1 683.447 1580.96 Q686.598 1581.79 689.686 1581.79 Q693.824 1581.79 696.052 1580.39 Q698.28 1578.96 698.28 1576.38 Q698.28 1573.99 696.656 1572.72 Q695.065 1571.45 689.622 1570.27 L687.585 1569.79 Q682.142 1568.65 679.723 1566.29 Q677.305 1563.9 677.305 1559.77 Q677.305 1554.74 680.869 1552 Q684.434 1549.26 690.991 1549.26 Q694.237 1549.26 697.102 1549.74 Q699.966 1550.22 702.385 1551.17 Z" fill="#000000" fill-rule="evenodd" fill-opacity="1"></path><path clip-path="url(#clip410)" d="M729.822 1567.85 Q722.724 1567.85 719.987 1569.47 Q717.249 1571.1 717.249 1575.01 Q717.249 1578.13 719.286 1579.98 Q721.355 1581.79 724.888 1581.79 Q729.758 1581.79 732.686 1578.35 Q735.646 1574.88 735.646 1569.16 L735.646 1567.85 L729.822 1567.85 M741.503 1565.43 L741.503 1585.77 L735.646 1585.77 L735.646 1580.36 Q733.641 1583.61 730.649 1585.16 Q727.657 1586.69 723.329 1586.69 Q717.854 1586.69 714.608 1583.64 Q711.393 1580.55 711.393 1575.39 Q711.393 1569.38 715.403 1566.32 Q719.446 1563.27 727.434 1563.27 L735.646 1563.27 L735.646 1562.69 Q735.646 1558.65 732.973 1556.46 Q730.331 1554.23 725.525 1554.23 Q722.469 1554.23 719.573 1554.96 Q716.676 1555.69 714.003 1557.16 L714.003 1551.74 Q717.218 1550.5 720.241 1549.9 Q723.265 1549.26 726.129 1549.26 Q733.864 1549.26 737.683 1553.27 Q741.503 1557.28 741.503 1565.43 Z" fill="#000000" fill-rule="evenodd" fill-opacity="1"></path><path clip-path="url(#clip410)" d="M781.32 1556.96 Q783.516 1553.02 786.572 1551.14 Q789.627 1549.26 793.765 1549.26 Q799.335 1549.26 802.359 1553.18 Q805.383 1557.06 805.383 1564.25 L805.383 1585.77 L799.494 1585.77 L799.494 1564.44 Q799.494 1559.32 797.68 1556.84 Q795.866 1554.35 792.142 1554.35 Q787.59 1554.35 784.949 1557.38 Q782.307 1560.4 782.307 1565.62 L782.307 1585.77 L776.419 1585.77 L776.419 1564.44 Q776.419 1559.29 774.604 1556.84 Q772.79 1554.35 769.003 1554.35 Q764.515 1554.35 761.873 1557.41 Q759.231 1560.43 759.231 1565.62 L759.231 1585.77 L753.343 1585.77 L753.343 1550.12 L759.231 1550.12 L759.231 1555.66 Q761.236 1552.38 764.037 1550.82 Q766.838 1549.26 770.689 1549.26 Q774.573 1549.26 777.278 1551.24 Q780.015 1553.21 781.32 1556.96 Z" fill="#000000" fill-rule="evenodd" fill-opacity="1"></path><path clip-path="url(#clip410)" d="M822.729 1580.42 L822.729 1599.33 L816.841 1599.33 L816.841 1550.12 L822.729 1550.12 L822.729 1555.53 Q824.575 1552.35 827.376 1550.82 Q830.209 1549.26 834.124 1549.26 Q840.617 1549.26 844.659 1554.42 Q848.733 1559.57 848.733 1567.98 Q848.733 1576.38 844.659 1581.54 Q840.617 1586.69 834.124 1586.69 Q830.209 1586.69 827.376 1585.16 Q824.575 1583.61 822.729 1580.42 M842.654 1567.98 Q842.654 1561.52 839.98 1557.86 Q837.338 1554.16 832.691 1554.16 Q828.044 1554.16 825.371 1557.86 Q822.729 1561.52 822.729 1567.98 Q822.729 1574.44 825.371 1578.13 Q828.044 1581.79 832.691 1581.79 Q837.338 1581.79 839.98 1578.13 Q842.654 1574.44 842.654 1567.98 Z" fill="#000000" fill-rule="evenodd" fill-opacity="1"></path><path clip-path="url(#clip410)" d="M858.441 1536.24 L864.297 1536.24 L864.297 1585.77 L858.441 1585.77 L858.441 1536.24 Z" fill="#000000" fill-rule="evenodd" fill-opacity="1"></path><path clip-path="url(#clip410)" d="M907.043 1566.48 L907.043 1569.35 L880.116 1569.35 Q880.498 1575.39 883.744 1578.58 Q887.023 1581.73 892.847 1581.73 Q896.221 1581.73 899.372 1580.9 Q902.555 1580.07 905.674 1578.42 L905.674 1583.96 Q902.523 1585.29 899.213 1585.99 Q895.903 1586.69 892.497 1586.69 Q883.967 1586.69 878.97 1581.73 Q874.005 1576.76 874.005 1568.3 Q874.005 1559.54 878.715 1554.42 Q883.458 1549.26 891.479 1549.26 Q898.672 1549.26 902.842 1553.91 Q907.043 1558.52 907.043 1566.48 M901.186 1564.76 Q901.123 1559.96 898.481 1557.09 Q895.871 1554.23 891.542 1554.23 Q886.641 1554.23 883.681 1557 Q880.753 1559.77 880.307 1564.79 L901.186 1564.76 Z" fill="#000000" fill-rule="evenodd" fill-opacity="1"></path><polyline clip-path="url(#clip412)" style="stroke:#000000; stroke-linecap:round; stroke-linejoin:round; stroke-width:2; stroke-opacity:0.1; fill:none" points="
  231.337,1397.54 1352.76,1397.54 
  "></polyline>
<polyline clip-path="url(#clip412)" style="stroke:#000000; stroke-linecap:round; stroke-linejoin:round; stroke-width:2; stroke-opacity:0.1; fill:none" points="
  231.337,1033.41 1352.76,1033.41 
  "></polyline>
<polyline clip-path="url(#clip412)" style="stroke:#000000; stroke-linecap:round; stroke-linejoin:round; stroke-width:2; stroke-opacity:0.1; fill:none" points="
  231.337,669.269 1352.76,669.269 
  "></polyline>
<polyline clip-path="url(#clip412)" style="stroke:#000000; stroke-linecap:round; stroke-linejoin:round; stroke-width:2; stroke-opacity:0.1; fill:none" points="
  231.337,305.131 1352.76,305.131 
  "></polyline>
<polyline clip-path="url(#clip410)" style="stroke:#000000; stroke-linecap:round; stroke-linejoin:round; stroke-width:4; stroke-opacity:1; fill:none" points="
  231.337,1434.91 231.337,114.832 
  "></polyline>
<polyline clip-path="url(#clip410)" style="stroke:#000000; stroke-linecap:round; stroke-linejoin:round; stroke-width:4; stroke-opacity:1; fill:none" points="
  231.337,1397.54 250.235,1397.54 
  "></polyline>
<polyline clip-path="url(#clip410)" style="stroke:#000000; stroke-linecap:round; stroke-linejoin:round; stroke-width:4; stroke-opacity:1; fill:none" points="
  231.337,1033.41 250.235,1033.41 
  "></polyline>
<polyline clip-path="url(#clip410)" style="stroke:#000000; stroke-linecap:round; stroke-linejoin:round; stroke-width:4; stroke-opacity:1; fill:none" points="
  231.337,669.269 250.235,669.269 
  "></polyline>
<polyline clip-path="url(#clip410)" style="stroke:#000000; stroke-linecap:round; stroke-linejoin:round; stroke-width:4; stroke-opacity:1; fill:none" points="
  231.337,305.131 250.235,305.131 
  "></polyline>
<path clip-path="url(#clip410)" d="M177.392 1383.34 Q173.781 1383.34 171.953 1386.91 Q170.147 1390.45 170.147 1397.58 Q170.147 1404.69 171.953 1408.25 Q173.781 1411.79 177.392 1411.79 Q181.027 1411.79 182.832 1408.25 Q184.661 1404.69 184.661 1397.58 Q184.661 1390.45 182.832 1386.91 Q181.027 1383.34 177.392 1383.34 M177.392 1379.64 Q183.203 1379.64 186.258 1384.25 Q189.337 1388.83 189.337 1397.58 Q189.337 1406.31 186.258 1410.91 Q183.203 1415.5 177.392 1415.5 Q171.582 1415.5 168.504 1410.91 Q165.448 1406.31 165.448 1397.58 Q165.448 1388.83 168.504 1384.25 Q171.582 1379.64 177.392 1379.64 Z" fill="#000000" fill-rule="evenodd" fill-opacity="1"></path><path clip-path="url(#clip410)" d="M107.879 1046.75 L115.518 1046.75 L115.518 1020.39 L107.208 1022.05 L107.208 1017.79 L115.472 1016.13 L120.147 1016.13 L120.147 1046.75 L127.786 1046.75 L127.786 1050.69 L107.879 1050.69 L107.879 1046.75 Z" fill="#000000" fill-rule="evenodd" fill-opacity="1"></path><path clip-path="url(#clip410)" d="M147.231 1019.21 Q143.62 1019.21 141.791 1022.77 Q139.985 1026.31 139.985 1033.44 Q139.985 1040.55 141.791 1044.11 Q143.62 1047.65 147.231 1047.65 Q150.865 1047.65 152.67 1044.11 Q154.499 1040.55 154.499 1033.44 Q154.499 1026.31 152.67 1022.77 Q150.865 1019.21 147.231 1019.21 M147.231 1015.5 Q153.041 1015.5 156.096 1020.11 Q159.175 1024.69 159.175 1033.44 Q159.175 1042.17 156.096 1046.77 Q153.041 1051.36 147.231 1051.36 Q141.42 1051.36 138.342 1046.77 Q135.286 1042.17 135.286 1033.44 Q135.286 1024.69 138.342 1020.11 Q141.42 1015.5 147.231 1015.5 Z" fill="#000000" fill-rule="evenodd" fill-opacity="1"></path><path clip-path="url(#clip410)" d="M177.392 1019.21 Q173.781 1019.21 171.953 1022.77 Q170.147 1026.31 170.147 1033.44 Q170.147 1040.55 171.953 1044.11 Q173.781 1047.65 177.392 1047.65 Q181.027 1047.65 182.832 1044.11 Q184.661 1040.55 184.661 1033.44 Q184.661 1026.31 182.832 1022.77 Q181.027 1019.21 177.392 1019.21 M177.392 1015.5 Q183.203 1015.5 186.258 1020.11 Q189.337 1024.69 189.337 1033.44 Q189.337 1042.17 186.258 1046.77 Q183.203 1051.36 177.392 1051.36 Q171.582 1051.36 168.504 1046.77 Q165.448 1042.17 165.448 1033.44 Q165.448 1024.69 168.504 1020.11 Q171.582 1015.5 177.392 1015.5 Z" fill="#000000" fill-rule="evenodd" fill-opacity="1"></path><path clip-path="url(#clip410)" d="M111.097 682.614 L127.416 682.614 L127.416 686.549 L105.472 686.549 L105.472 682.614 Q108.134 679.859 112.717 675.229 Q117.323 670.577 118.504 669.234 Q120.749 666.711 121.629 664.975 Q122.532 663.216 122.532 661.526 Q122.532 658.771 120.587 657.035 Q118.666 655.299 115.564 655.299 Q113.365 655.299 110.911 656.063 Q108.481 656.827 105.703 658.378 L105.703 653.655 Q108.527 652.521 110.981 651.942 Q113.435 651.364 115.472 651.364 Q120.842 651.364 124.036 654.049 Q127.231 656.734 127.231 661.225 Q127.231 663.354 126.421 665.276 Q125.634 667.174 123.527 669.766 Q122.948 670.438 119.847 673.655 Q116.745 676.85 111.097 682.614 Z" fill="#000000" fill-rule="evenodd" fill-opacity="1"></path><path clip-path="url(#clip410)" d="M147.231 655.067 Q143.62 655.067 141.791 658.632 Q139.985 662.174 139.985 669.304 Q139.985 676.41 141.791 679.975 Q143.62 683.516 147.231 683.516 Q150.865 683.516 152.67 679.975 Q154.499 676.41 154.499 669.304 Q154.499 662.174 152.67 658.632 Q150.865 655.067 147.231 655.067 M147.231 651.364 Q153.041 651.364 156.096 655.97 Q159.175 660.554 159.175 669.304 Q159.175 678.03 156.096 682.637 Q153.041 687.22 147.231 687.22 Q141.42 687.22 138.342 682.637 Q135.286 678.03 135.286 669.304 Q135.286 660.554 138.342 655.97 Q141.42 651.364 147.231 651.364 Z" fill="#000000" fill-rule="evenodd" fill-opacity="1"></path><path clip-path="url(#clip410)" d="M177.392 655.067 Q173.781 655.067 171.953 658.632 Q170.147 662.174 170.147 669.304 Q170.147 676.41 171.953 679.975 Q173.781 683.516 177.392 683.516 Q181.027 683.516 182.832 679.975 Q184.661 676.41 184.661 669.304 Q184.661 662.174 182.832 658.632 Q181.027 655.067 177.392 655.067 M177.392 651.364 Q183.203 651.364 186.258 655.97 Q189.337 660.554 189.337 669.304 Q189.337 678.03 186.258 682.637 Q183.203 687.22 177.392 687.22 Q171.582 687.22 168.504 682.637 Q165.448 678.03 165.448 669.304 Q165.448 660.554 168.504 655.97 Q171.582 651.364 177.392 651.364 Z" fill="#000000" fill-rule="evenodd" fill-opacity="1"></path><path clip-path="url(#clip410)" d="M121.235 303.777 Q124.592 304.494 126.467 306.763 Q128.365 309.031 128.365 312.364 Q128.365 317.48 124.846 320.281 Q121.328 323.082 114.847 323.082 Q112.671 323.082 110.356 322.642 Q108.064 322.226 105.61 321.369 L105.61 316.855 Q107.555 317.989 109.87 318.568 Q112.185 319.147 114.708 319.147 Q119.106 319.147 121.397 317.411 Q123.712 315.675 123.712 312.364 Q123.712 309.309 121.559 307.596 Q119.43 305.86 115.61 305.86 L111.583 305.86 L111.583 302.017 L115.796 302.017 Q119.245 302.017 121.073 300.652 Q122.902 299.263 122.902 296.67 Q122.902 294.008 121.004 292.596 Q119.129 291.161 115.61 291.161 Q113.689 291.161 111.49 291.578 Q109.291 291.994 106.652 292.874 L106.652 288.707 Q109.314 287.966 111.629 287.596 Q113.967 287.226 116.027 287.226 Q121.351 287.226 124.453 289.656 Q127.555 292.064 127.555 296.184 Q127.555 299.054 125.911 301.045 Q124.268 303.013 121.235 303.777 Z" fill="#000000" fill-rule="evenodd" fill-opacity="1"></path><path clip-path="url(#clip410)" d="M147.231 290.929 Q143.62 290.929 141.791 294.494 Q139.985 298.036 139.985 305.165 Q139.985 312.272 141.791 315.837 Q143.62 319.378 147.231 319.378 Q150.865 319.378 152.67 315.837 Q154.499 312.272 154.499 305.165 Q154.499 298.036 152.67 294.494 Q150.865 290.929 147.231 290.929 M147.231 287.226 Q153.041 287.226 156.096 291.832 Q159.175 296.415 159.175 305.165 Q159.175 313.892 156.096 318.499 Q153.041 323.082 147.231 323.082 Q141.42 323.082 138.342 318.499 Q135.286 313.892 135.286 305.165 Q135.286 296.415 138.342 291.832 Q141.42 287.226 147.231 287.226 Z" fill="#000000" fill-rule="evenodd" fill-opacity="1"></path><path clip-path="url(#clip410)" d="M177.392 290.929 Q173.781 290.929 171.953 294.494 Q170.147 298.036 170.147 305.165 Q170.147 312.272 171.953 315.837 Q173.781 319.378 177.392 319.378 Q181.027 319.378 182.832 315.837 Q184.661 312.272 184.661 305.165 Q184.661 298.036 182.832 294.494 Q181.027 290.929 177.392 290.929 M177.392 287.226 Q183.203 287.226 186.258 291.832 Q189.337 296.415 189.337 305.165 Q189.337 313.892 186.258 318.499 Q183.203 323.082 177.392 323.082 Q171.582 323.082 168.504 318.499 Q165.448 313.892 165.448 305.165 Q165.448 296.415 168.504 291.832 Q171.582 287.226 177.392 287.226 Z" fill="#000000" fill-rule="evenodd" fill-opacity="1"></path><path clip-path="url(#clip410)" d="M14.9363 852.212 L20.4108 852.212 Q19.0421 854.695 18.3737 857.209 Q17.6735 859.692 17.6735 862.238 Q17.6735 867.935 21.302 871.086 Q24.8986 874.238 31.4234 874.238 Q37.9483 874.238 41.5767 871.086 Q45.1734 867.935 45.1734 862.238 Q45.1734 859.692 44.505 857.209 Q43.8047 854.695 42.4361 852.212 L47.847 852.212 Q48.9928 854.663 49.5657 857.305 Q50.1386 859.915 50.1386 862.875 Q50.1386 870.927 45.0779 875.67 Q40.0171 880.412 31.4234 880.412 Q22.7024 880.412 17.7053 875.638 Q12.7083 870.832 12.7083 862.493 Q12.7083 859.787 13.2812 857.209 Q13.8223 854.631 14.9363 852.212 Z" fill="#000000" fill-rule="evenodd" fill-opacity="1"></path><path clip-path="url(#clip410)" d="M17.6735 828.213 Q17.6735 832.924 21.3656 835.661 Q25.0259 838.399 31.4234 838.399 Q37.821 838.399 41.5131 835.693 Q45.1734 832.956 45.1734 828.213 Q45.1734 823.535 41.4813 820.797 Q37.7891 818.06 31.4234 818.06 Q25.0896 818.06 21.3974 820.797 Q17.6735 823.535 17.6735 828.213 M12.7083 828.213 Q12.7083 820.575 17.6735 816.214 Q22.6388 811.854 31.4234 811.854 Q40.1763 811.854 45.1734 816.214 Q50.1386 820.575 50.1386 828.213 Q50.1386 835.884 45.1734 840.245 Q40.1763 844.573 31.4234 844.573 Q22.6388 844.573 17.6735 840.245 Q12.7083 835.884 12.7083 828.213 Z" fill="#000000" fill-rule="evenodd" fill-opacity="1"></path><path clip-path="url(#clip410)" d="M35.1474 802.751 L13.5676 802.751 L13.5676 796.894 L34.9246 796.894 Q39.9853 796.894 42.5316 794.921 Q45.046 792.947 45.046 789.001 Q45.046 784.258 42.0223 781.521 Q38.9986 778.752 33.7787 778.752 L13.5676 778.752 L13.5676 772.895 L49.2156 772.895 L49.2156 778.752 L43.7411 778.752 Q46.9876 780.884 48.579 783.717 Q50.1386 786.518 50.1386 790.242 Q50.1386 796.385 46.3192 799.568 Q42.4998 802.751 35.1474 802.751 M12.7083 788.014 L12.7083 788.014 Z" fill="#000000" fill-rule="evenodd" fill-opacity="1"></path><path clip-path="url(#clip410)" d="M27.6995 731.2 L49.2156 731.2 L49.2156 737.057 L27.8905 737.057 Q22.8297 737.057 20.3153 739.03 Q17.8008 741.003 17.8008 744.95 Q17.8008 749.692 20.8245 752.43 Q23.8482 755.167 29.0681 755.167 L49.2156 755.167 L49.2156 761.055 L13.5676 761.055 L13.5676 755.167 L19.1058 755.167 Q15.8911 753.066 14.2997 750.234 Q12.7083 747.369 12.7083 743.645 Q12.7083 737.502 16.5277 734.351 Q20.3153 731.2 27.6995 731.2 Z" fill="#000000" fill-rule="evenodd" fill-opacity="1"></path><path clip-path="url(#clip410)" d="M3.44616 713.726 L13.5676 713.726 L13.5676 701.663 L18.1191 701.663 L18.1191 713.726 L37.4709 713.726 Q41.8314 713.726 43.0727 712.549 Q44.314 711.339 44.314 707.679 L44.314 701.663 L49.2156 701.663 L49.2156 707.679 Q49.2156 714.458 46.7011 717.036 Q44.1548 719.615 37.4709 719.615 L18.1191 719.615 L18.1191 723.911 L13.5676 723.911 L13.5676 719.615 L3.44616 719.615 L3.44616 713.726 Z" fill="#000000" fill-rule="evenodd" fill-opacity="1"></path><path clip-path="url(#clip410)" d="M14.618 671.235 L20.1561 671.235 Q18.883 673.718 18.2464 676.391 Q17.6099 679.065 17.6099 681.93 Q17.6099 686.29 18.9467 688.486 Q20.2834 690.651 22.957 690.651 Q24.9941 690.651 26.1717 689.091 Q27.3176 687.531 28.3679 682.821 L28.8135 680.816 Q30.1503 674.577 32.6011 671.967 Q35.0201 669.325 39.3806 669.325 Q44.3458 669.325 47.2422 673.272 Q50.1386 677.187 50.1386 684.062 Q50.1386 686.927 49.5657 690.046 Q49.0246 693.133 47.9106 696.571 L41.8632 696.571 Q43.5501 693.324 44.4095 690.173 Q45.237 687.022 45.237 683.935 Q45.237 679.797 43.8366 677.569 Q42.4043 675.341 39.8262 675.341 Q37.439 675.341 36.1659 676.964 Q34.8927 678.556 33.7151 683.998 L33.2377 686.035 Q32.0918 691.478 29.7365 693.897 Q27.3494 696.316 23.2117 696.316 Q18.1828 696.316 15.4455 692.751 Q12.7083 689.186 12.7083 682.63 Q12.7083 679.383 13.1857 676.519 Q13.6631 673.654 14.618 671.235 Z" fill="#000000" fill-rule="evenodd" fill-opacity="1"></path><path clip-path="url(#clip410)" d="M616.906 27.2059 L624.805 27.2059 L638.983 65.2844 L653.161 27.2059 L661.06 27.2059 L644.047 72.576 L633.919 72.576 L616.906 27.2059 Z" fill="#000000" fill-rule="evenodd" fill-opacity="1"></path><path clip-path="url(#clip410)" d="M691.969 49.7694 Q682.935 49.7694 679.452 51.8354 Q675.968 53.9013 675.968 58.8839 Q675.968 62.8538 678.56 65.2034 Q681.193 67.5124 685.69 67.5124 Q691.888 67.5124 695.615 63.1374 Q699.382 58.7219 699.382 51.4303 L699.382 49.7694 L691.969 49.7694 M706.836 46.6907 L706.836 72.576 L699.382 72.576 L699.382 65.6895 Q696.83 69.8214 693.022 71.8063 Q689.214 73.7508 683.705 73.7508 Q676.737 73.7508 672.605 69.8619 Q668.514 65.9325 668.514 59.3701 Q668.514 51.7138 673.618 47.825 Q678.763 43.9361 688.931 43.9361 L699.382 43.9361 L699.382 43.2069 Q699.382 38.0623 695.979 35.2672 Q692.617 32.4315 686.5 32.4315 Q682.611 32.4315 678.925 33.3632 Q675.239 34.295 671.836 36.1584 L671.836 29.2718 Q675.927 27.692 679.776 26.9223 Q683.624 26.1121 687.27 26.1121 Q697.113 26.1121 701.975 31.2163 Q706.836 36.3204 706.836 46.6907 Z" fill="#000000" fill-rule="evenodd" fill-opacity="1"></path><path clip-path="url(#clip410)" d="M748.479 34.1734 Q747.223 33.4443 745.724 33.1202 Q744.266 32.7556 742.484 32.7556 Q736.164 32.7556 732.761 36.8875 Q729.399 40.9789 729.399 48.6757 L729.399 72.576 L721.905 72.576 L721.905 27.2059 L729.399 27.2059 L729.399 34.2544 Q731.749 30.1225 735.516 28.1376 Q739.283 26.1121 744.671 26.1121 Q745.441 26.1121 746.372 26.2337 Q747.304 26.3147 748.438 26.5172 L748.479 34.1734 Z" fill="#000000" fill-rule="evenodd" fill-opacity="1"></path><path clip-path="url(#clip410)" d="M756.297 27.2059 L763.751 27.2059 L763.751 72.576 L756.297 72.576 L756.297 27.2059 M756.297 9.54393 L763.751 9.54393 L763.751 18.9825 L756.297 18.9825 L756.297 9.54393 Z" fill="#000000" fill-rule="evenodd" fill-opacity="1"></path><path clip-path="url(#clip410)" d="M799.966 49.7694 Q790.932 49.7694 787.449 51.8354 Q783.965 53.9013 783.965 58.8839 Q783.965 62.8538 786.557 65.2034 Q789.191 67.5124 793.687 67.5124 Q799.885 67.5124 803.612 63.1374 Q807.379 58.7219 807.379 51.4303 L807.379 49.7694 L799.966 49.7694 M814.833 46.6907 L814.833 72.576 L807.379 72.576 L807.379 65.6895 Q804.827 69.8214 801.019 71.8063 Q797.211 73.7508 791.702 73.7508 Q784.735 73.7508 780.603 69.8619 Q776.511 65.9325 776.511 59.3701 Q776.511 51.7138 781.615 47.825 Q786.76 43.9361 796.928 43.9361 L807.379 43.9361 L807.379 43.2069 Q807.379 38.0623 803.976 35.2672 Q800.614 32.4315 794.497 32.4315 Q790.608 32.4315 786.922 33.3632 Q783.236 34.295 779.833 36.1584 L779.833 29.2718 Q783.924 27.692 787.773 26.9223 Q791.621 26.1121 795.267 26.1121 Q805.111 26.1121 809.972 31.2163 Q814.833 36.3204 814.833 46.6907 Z" fill="#000000" fill-rule="evenodd" fill-opacity="1"></path><path clip-path="url(#clip410)" d="M867.9 45.1919 L867.9 72.576 L860.446 72.576 L860.446 45.4349 Q860.446 38.994 857.934 35.7938 Q855.423 32.5936 850.4 32.5936 Q844.364 32.5936 840.88 36.4419 Q837.396 40.2903 837.396 46.9338 L837.396 72.576 L829.902 72.576 L829.902 27.2059 L837.396 27.2059 L837.396 34.2544 Q840.07 30.163 843.675 28.1376 Q847.321 26.1121 852.061 26.1121 Q859.879 26.1121 863.889 30.9732 Q867.9 35.7938 867.9 45.1919 Z" fill="#000000" fill-rule="evenodd" fill-opacity="1"></path><path clip-path="url(#clip410)" d="M915.417 28.9478 L915.417 35.9153 Q912.257 34.1734 909.057 33.3227 Q905.897 32.4315 902.656 32.4315 Q895.405 32.4315 891.395 37.0496 Q887.384 41.6271 887.384 49.9314 Q887.384 58.2358 891.395 62.8538 Q895.405 67.4314 902.656 67.4314 Q905.897 67.4314 909.057 66.5807 Q912.257 65.6895 915.417 63.9476 L915.417 70.8341 Q912.297 72.2924 908.935 73.0216 Q905.613 73.7508 901.846 73.7508 Q891.597 73.7508 885.562 67.3098 Q879.526 60.8689 879.526 49.9314 Q879.526 38.832 885.602 32.472 Q891.719 26.1121 902.332 26.1121 Q905.776 26.1121 909.057 26.8413 Q912.338 27.5299 915.417 28.9478 Z" fill="#000000" fill-rule="evenodd" fill-opacity="1"></path><path clip-path="url(#clip410)" d="M967.187 48.0275 L967.187 51.6733 L932.917 51.6733 Q933.403 59.3701 937.535 63.421 Q941.707 67.4314 949.12 67.4314 Q953.414 67.4314 957.425 66.3781 Q961.475 65.3249 965.445 63.2184 L965.445 70.267 Q961.435 71.9684 957.222 72.8596 Q953.009 73.7508 948.675 73.7508 Q937.818 73.7508 931.458 67.4314 Q925.139 61.1119 925.139 50.3365 Q925.139 39.1965 931.134 32.6746 Q937.17 26.1121 947.378 26.1121 Q956.533 26.1121 961.84 32.0264 Q967.187 37.9003 967.187 48.0275 M959.734 45.84 Q959.653 39.7232 956.29 36.0774 Q952.969 32.4315 947.459 32.4315 Q941.221 32.4315 937.454 35.9558 Q933.727 39.4801 933.16 45.8805 L959.734 45.84 Z" fill="#000000" fill-rule="evenodd" fill-opacity="1"></path><path clip-path="url(#clip412)" d="
M293.017 862.262 L293.017 1397.54 L348.465 1397.54 L348.465 862.262 L293.017 862.262 L293.017 862.262  Z
  " fill="#009af9" fill-rule="evenodd" fill-opacity="1"></path>
<polyline clip-path="url(#clip412)" style="stroke:#000000; stroke-linecap:round; stroke-linejoin:round; stroke-width:4; stroke-opacity:1; fill:none" points="
  293.017,862.262 293.017,1397.54 348.465,1397.54 348.465,862.262 293.017,862.262 
  "></polyline>
<path clip-path="url(#clip412)" d="
M348.465 152.193 L348.465 1397.54 L403.912 1397.54 L403.912 152.193 L348.465 152.193 L348.465 152.193  Z
  " fill="#009af9" fill-rule="evenodd" fill-opacity="1"></path>
<polyline clip-path="url(#clip412)" style="stroke:#000000; stroke-linecap:round; stroke-linejoin:round; stroke-width:4; stroke-opacity:1; fill:none" points="
  348.465,152.193 348.465,1397.54 403.912,1397.54 403.912,152.193 348.465,152.193 
  "></polyline>
<path clip-path="url(#clip412)" d="
M403.912 177.682 L403.912 1397.54 L459.36 1397.54 L459.36 177.682 L403.912 177.682 L403.912 177.682  Z
  " fill="#009af9" fill-rule="evenodd" fill-opacity="1"></path>
<polyline clip-path="url(#clip412)" style="stroke:#000000; stroke-linecap:round; stroke-linejoin:round; stroke-width:4; stroke-opacity:1; fill:none" points="
  403.912,177.682 403.912,1397.54 459.36,1397.54 459.36,177.682 403.912,177.682 
  "></polyline>
<path clip-path="url(#clip412)" d="
M459.36 297.848 L459.36 1397.54 L514.808 1397.54 L514.808 297.848 L459.36 297.848 L459.36 297.848  Z
  " fill="#009af9" fill-rule="evenodd" fill-opacity="1"></path>
<polyline clip-path="url(#clip412)" style="stroke:#000000; stroke-linecap:round; stroke-linejoin:round; stroke-width:4; stroke-opacity:1; fill:none" points="
  459.36,297.848 459.36,1397.54 514.808,1397.54 514.808,297.848 459.36,297.848 
  "></polyline>
<path clip-path="url(#clip412)" d="
M514.808 527.255 L514.808 1397.54 L570.256 1397.54 L570.256 527.255 L514.808 527.255 L514.808 527.255  Z
  " fill="#009af9" fill-rule="evenodd" fill-opacity="1"></path>
<polyline clip-path="url(#clip412)" style="stroke:#000000; stroke-linecap:round; stroke-linejoin:round; stroke-width:4; stroke-opacity:1; fill:none" points="
  514.808,527.255 514.808,1397.54 570.256,1397.54 570.256,527.255 514.808,527.255 
  "></polyline>
<path clip-path="url(#clip412)" d="
M570.256 723.89 L570.256 1397.54 L625.703 1397.54 L625.703 723.89 L570.256 723.89 L570.256 723.89  Z
  " fill="#009af9" fill-rule="evenodd" fill-opacity="1"></path>
<polyline clip-path="url(#clip412)" style="stroke:#000000; stroke-linecap:round; stroke-linejoin:round; stroke-width:4; stroke-opacity:1; fill:none" points="
  570.256,723.89 570.256,1397.54 625.703,1397.54 625.703,723.89 570.256,723.89 
  "></polyline>
<path clip-path="url(#clip412)" d="
M625.703 847.696 L625.703 1397.54 L681.151 1397.54 L681.151 847.696 L625.703 847.696 L625.703 847.696  Z
  " fill="#009af9" fill-rule="evenodd" fill-opacity="1"></path>
<polyline clip-path="url(#clip412)" style="stroke:#000000; stroke-linecap:round; stroke-linejoin:round; stroke-width:4; stroke-opacity:1; fill:none" points="
  625.703,847.696 625.703,1397.54 681.151,1397.54 681.151,847.696 625.703,847.696 
  "></polyline>
<path clip-path="url(#clip412)" d="
M681.151 1004.28 L681.151 1397.54 L736.599 1397.54 L736.599 1004.28 L681.151 1004.28 L681.151 1004.28  Z
  " fill="#009af9" fill-rule="evenodd" fill-opacity="1"></path>
<polyline clip-path="url(#clip412)" style="stroke:#000000; stroke-linecap:round; stroke-linejoin:round; stroke-width:4; stroke-opacity:1; fill:none" points="
  681.151,1004.28 681.151,1397.54 736.599,1397.54 736.599,1004.28 681.151,1004.28 
  "></polyline>
<path clip-path="url(#clip412)" d="
M736.599 1149.93 L736.599 1397.54 L792.046 1397.54 L792.046 1149.93 L736.599 1149.93 L736.599 1149.93  Z
  " fill="#009af9" fill-rule="evenodd" fill-opacity="1"></path>
<polyline clip-path="url(#clip412)" style="stroke:#000000; stroke-linecap:round; stroke-linejoin:round; stroke-width:4; stroke-opacity:1; fill:none" points="
  736.599,1149.93 736.599,1397.54 792.046,1397.54 792.046,1149.93 736.599,1149.93 
  "></polyline>
<path clip-path="url(#clip412)" d="
M792.046 1230.04 L792.046 1397.54 L847.494 1397.54 L847.494 1230.04 L792.046 1230.04 L792.046 1230.04  Z
  " fill="#009af9" fill-rule="evenodd" fill-opacity="1"></path>
<polyline clip-path="url(#clip412)" style="stroke:#000000; stroke-linecap:round; stroke-linejoin:round; stroke-width:4; stroke-opacity:1; fill:none" points="
  792.046,1230.04 792.046,1397.54 847.494,1397.54 847.494,1230.04 792.046,1230.04 
  "></polyline>
<path clip-path="url(#clip412)" d="
M847.494 1284.66 L847.494 1397.54 L902.942 1397.54 L902.942 1284.66 L847.494 1284.66 L847.494 1284.66  Z
  " fill="#009af9" fill-rule="evenodd" fill-opacity="1"></path>
<polyline clip-path="url(#clip412)" style="stroke:#000000; stroke-linecap:round; stroke-linejoin:round; stroke-width:4; stroke-opacity:1; fill:none" points="
  847.494,1284.66 847.494,1397.54 902.942,1397.54 902.942,1284.66 847.494,1284.66 
  "></polyline>
<path clip-path="url(#clip412)" d="
M902.942 1332 L902.942 1397.54 L958.39 1397.54 L958.39 1332 L902.942 1332 L902.942 1332  Z
  " fill="#009af9" fill-rule="evenodd" fill-opacity="1"></path>
<polyline clip-path="url(#clip412)" style="stroke:#000000; stroke-linecap:round; stroke-linejoin:round; stroke-width:4; stroke-opacity:1; fill:none" points="
  902.942,1332 902.942,1397.54 958.39,1397.54 958.39,1332 902.942,1332 
  "></polyline>
<path clip-path="url(#clip412)" d="
M958.39 1361.13 L958.39 1397.54 L1013.84 1397.54 L1013.84 1361.13 L958.39 1361.13 L958.39 1361.13  Z
  " fill="#009af9" fill-rule="evenodd" fill-opacity="1"></path>
<polyline clip-path="url(#clip412)" style="stroke:#000000; stroke-linecap:round; stroke-linejoin:round; stroke-width:4; stroke-opacity:1; fill:none" points="
  958.39,1361.13 958.39,1397.54 1013.84,1397.54 1013.84,1361.13 958.39,1361.13 
  "></polyline>
<path clip-path="url(#clip412)" d="
M1013.84 1375.7 L1013.84 1397.54 L1069.28 1397.54 L1069.28 1375.7 L1013.84 1375.7 L1013.84 1375.7  Z
  " fill="#009af9" fill-rule="evenodd" fill-opacity="1"></path>
<polyline clip-path="url(#clip412)" style="stroke:#000000; stroke-linecap:round; stroke-linejoin:round; stroke-width:4; stroke-opacity:1; fill:none" points="
  1013.84,1375.7 1013.84,1397.54 1069.28,1397.54 1069.28,1375.7 1013.84,1375.7 
  "></polyline>
<path clip-path="url(#clip412)" d="
M1069.28 1375.7 L1069.28 1397.54 L1124.73 1397.54 L1124.73 1375.7 L1069.28 1375.7 L1069.28 1375.7  Z
  " fill="#009af9" fill-rule="evenodd" fill-opacity="1"></path>
<polyline clip-path="url(#clip412)" style="stroke:#000000; stroke-linecap:round; stroke-linejoin:round; stroke-width:4; stroke-opacity:1; fill:none" points="
  1069.28,1375.7 1069.28,1397.54 1124.73,1397.54 1124.73,1375.7 1069.28,1375.7 
  "></polyline>
<path clip-path="url(#clip412)" d="
M1124.73 1397.54 L1124.73 1397.54 L1180.18 1397.54 L1180.18 1397.54 L1124.73 1397.54 L1124.73 1397.54  Z
  " fill="#009af9" fill-rule="evenodd" fill-opacity="1"></path>
<polyline clip-path="url(#clip412)" style="stroke:#000000; stroke-linecap:round; stroke-linejoin:round; stroke-width:4; stroke-opacity:1; fill:none" points="
  1124.73,1397.54 1124.73,1397.54 1180.18,1397.54 1124.73,1397.54 
  "></polyline>
<path clip-path="url(#clip412)" d="
M1180.18 1382.98 L1180.18 1397.54 L1235.63 1397.54 L1235.63 1382.98 L1180.18 1382.98 L1180.18 1382.98  Z
  " fill="#009af9" fill-rule="evenodd" fill-opacity="1"></path>
<polyline clip-path="url(#clip412)" style="stroke:#000000; stroke-linecap:round; stroke-linejoin:round; stroke-width:4; stroke-opacity:1; fill:none" points="
  1180.18,1382.98 1180.18,1397.54 1235.63,1397.54 1235.63,1382.98 1180.18,1382.98 
  "></polyline>
<path clip-path="url(#clip412)" d="
M1235.63 1390.26 L1235.63 1397.54 L1291.08 1397.54 L1291.08 1390.26 L1235.63 1390.26 L1235.63 1390.26  Z
  " fill="#009af9" fill-rule="evenodd" fill-opacity="1"></path>
<polyline clip-path="url(#clip412)" style="stroke:#000000; stroke-linecap:round; stroke-linejoin:round; stroke-width:4; stroke-opacity:1; fill:none" points="
  1235.63,1390.26 1235.63,1397.54 1291.08,1397.54 1291.08,1390.26 1235.63,1390.26 
  "></polyline>
<circle clip-path="url(#clip412)" style="fill:#009af9; stroke:none; fill-opacity:0" cx="320.741" cy="862.262" r="2"></circle>
<circle clip-path="url(#clip412)" style="fill:#009af9; stroke:none; fill-opacity:0" cx="376.188" cy="152.193" r="2"></circle>
<circle clip-path="url(#clip412)" style="fill:#009af9; stroke:none; fill-opacity:0" cx="431.636" cy="177.682" r="2"></circle>
<circle clip-path="url(#clip412)" style="fill:#009af9; stroke:none; fill-opacity:0" cx="487.084" cy="297.848" r="2"></circle>
<circle clip-path="url(#clip412)" style="fill:#009af9; stroke:none; fill-opacity:0" cx="542.532" cy="527.255" r="2"></circle>
<circle clip-path="url(#clip412)" style="fill:#009af9; stroke:none; fill-opacity:0" cx="597.979" cy="723.89" r="2"></circle>
<circle clip-path="url(#clip412)" style="fill:#009af9; stroke:none; fill-opacity:0" cx="653.427" cy="847.696" r="2"></circle>
<circle clip-path="url(#clip412)" style="fill:#009af9; stroke:none; fill-opacity:0" cx="708.875" cy="1004.28" r="2"></circle>
<circle clip-path="url(#clip412)" style="fill:#009af9; stroke:none; fill-opacity:0" cx="764.323" cy="1149.93" r="2"></circle>
<circle clip-path="url(#clip412)" style="fill:#009af9; stroke:none; fill-opacity:0" cx="819.77" cy="1230.04" r="2"></circle>
<circle clip-path="url(#clip412)" style="fill:#009af9; stroke:none; fill-opacity:0" cx="875.218" cy="1284.66" r="2"></circle>
<circle clip-path="url(#clip412)" style="fill:#009af9; stroke:none; fill-opacity:0" cx="930.666" cy="1332" r="2"></circle>
<circle clip-path="url(#clip412)" style="fill:#009af9; stroke:none; fill-opacity:0" cx="986.113" cy="1361.13" r="2"></circle>
<circle clip-path="url(#clip412)" style="fill:#009af9; stroke:none; fill-opacity:0" cx="1041.56" cy="1375.7" r="2"></circle>
<circle clip-path="url(#clip412)" style="fill:#009af9; stroke:none; fill-opacity:0" cx="1097.01" cy="1375.7" r="2"></circle>
<circle clip-path="url(#clip412)" style="fill:#009af9; stroke:none; fill-opacity:0" cx="1152.46" cy="1397.54" r="2"></circle>
<circle clip-path="url(#clip412)" style="fill:#009af9; stroke:none; fill-opacity:0" cx="1207.9" cy="1382.98" r="2"></circle>
<circle clip-path="url(#clip412)" style="fill:#009af9; stroke:none; fill-opacity:0" cx="1263.35" cy="1390.26" r="2"></circle>
<polyline clip-path="url(#clip412)" style="stroke:#e26f46; stroke-linecap:round; stroke-linejoin:round; stroke-width:8; stroke-opacity:1; fill:none" points="
  523.906,2754.98 523.906,-1205.24 
  "></polyline>
<path clip-path="url(#clip410)" d="
M1631.34 1434.91 L2752.76 1434.91 L2752.76 114.832 L1631.34 114.832  Z
  " fill="#ffffff" fill-rule="evenodd" fill-opacity="1"></path>
<defs>
  <clipPath id="clip413">
    <rect x="1631" y="114" width="1122" height="1321"></rect>
  </clipPath>
</defs>
<polyline clip-path="url(#clip413)" style="stroke:#000000; stroke-linecap:round; stroke-linejoin:round; stroke-width:2; stroke-opacity:0.1; fill:none" points="
  1693.02,1434.91 1693.02,114.832 
  "></polyline>
<polyline clip-path="url(#clip413)" style="stroke:#000000; stroke-linecap:round; stroke-linejoin:round; stroke-width:2; stroke-opacity:0.1; fill:none" points="
  1986.56,1434.91 1986.56,114.832 
  "></polyline>
<polyline clip-path="url(#clip413)" style="stroke:#000000; stroke-linecap:round; stroke-linejoin:round; stroke-width:2; stroke-opacity:0.1; fill:none" points="
  2280.11,1434.91 2280.11,114.832 
  "></polyline>
<polyline clip-path="url(#clip413)" style="stroke:#000000; stroke-linecap:round; stroke-linejoin:round; stroke-width:2; stroke-opacity:0.1; fill:none" points="
  2573.66,1434.91 2573.66,114.832 
  "></polyline>
<polyline clip-path="url(#clip410)" style="stroke:#000000; stroke-linecap:round; stroke-linejoin:round; stroke-width:4; stroke-opacity:1; fill:none" points="
  1631.34,1434.91 2752.76,1434.91 
  "></polyline>
<polyline clip-path="url(#clip410)" style="stroke:#000000; stroke-linecap:round; stroke-linejoin:round; stroke-width:4; stroke-opacity:1; fill:none" points="
  1693.02,1434.91 1693.02,1416.01 
  "></polyline>
<polyline clip-path="url(#clip410)" style="stroke:#000000; stroke-linecap:round; stroke-linejoin:round; stroke-width:4; stroke-opacity:1; fill:none" points="
  1986.56,1434.91 1986.56,1416.01 
  "></polyline>
<polyline clip-path="url(#clip410)" style="stroke:#000000; stroke-linecap:round; stroke-linejoin:round; stroke-width:4; stroke-opacity:1; fill:none" points="
  2280.11,1434.91 2280.11,1416.01 
  "></polyline>
<polyline clip-path="url(#clip410)" style="stroke:#000000; stroke-linecap:round; stroke-linejoin:round; stroke-width:4; stroke-opacity:1; fill:none" points="
  2573.66,1434.91 2573.66,1416.01 
  "></polyline>
<path clip-path="url(#clip410)" d="M1693.02 1469.02 Q1689.41 1469.02 1687.58 1472.59 Q1685.77 1476.13 1685.77 1483.26 Q1685.77 1490.37 1687.58 1493.93 Q1689.41 1497.47 1693.02 1497.47 Q1696.65 1497.47 1698.46 1493.93 Q1700.29 1490.37 1700.29 1483.26 Q1700.29 1476.13 1698.46 1472.59 Q1696.65 1469.02 1693.02 1469.02 M1693.02 1465.32 Q1698.83 1465.32 1701.88 1469.93 Q1704.96 1474.51 1704.96 1483.26 Q1704.96 1491.99 1701.88 1496.59 Q1698.83 1501.18 1693.02 1501.18 Q1687.21 1501.18 1684.13 1496.59 Q1681.07 1491.99 1681.07 1483.26 Q1681.07 1474.51 1684.13 1469.93 Q1687.21 1465.32 1693.02 1465.32 Z" fill="#000000" fill-rule="evenodd" fill-opacity="1"></path><path clip-path="url(#clip410)" d="M1976.95 1496.57 L1984.58 1496.57 L1984.58 1470.2 L1976.27 1471.87 L1976.27 1467.61 L1984.54 1465.95 L1989.21 1465.95 L1989.21 1496.57 L1996.85 1496.57 L1996.85 1500.51 L1976.95 1500.51 L1976.95 1496.57 Z" fill="#000000" fill-rule="evenodd" fill-opacity="1"></path><path clip-path="url(#clip410)" d="M2274.76 1496.57 L2291.08 1496.57 L2291.08 1500.51 L2269.14 1500.51 L2269.14 1496.57 Q2271.8 1493.82 2276.38 1489.19 Q2280.99 1484.53 2282.17 1483.19 Q2284.42 1480.67 2285.3 1478.93 Q2286.2 1477.17 2286.2 1475.48 Q2286.2 1472.73 2284.25 1470.99 Q2282.33 1469.26 2279.23 1469.26 Q2277.03 1469.26 2274.58 1470.02 Q2272.15 1470.78 2269.37 1472.33 L2269.37 1467.61 Q2272.19 1466.48 2274.65 1465.9 Q2277.1 1465.32 2279.14 1465.32 Q2284.51 1465.32 2287.7 1468.01 Q2290.9 1470.69 2290.9 1475.18 Q2290.9 1477.31 2290.09 1479.23 Q2289.3 1481.13 2287.19 1483.72 Q2286.62 1484.39 2283.51 1487.61 Q2280.41 1490.81 2274.76 1496.57 Z" fill="#000000" fill-rule="evenodd" fill-opacity="1"></path><path clip-path="url(#clip410)" d="M2577.9 1481.87 Q2581.26 1482.59 2583.14 1484.86 Q2585.03 1487.13 2585.03 1490.46 Q2585.03 1495.58 2581.52 1498.38 Q2578 1501.18 2571.52 1501.18 Q2569.34 1501.18 2567.03 1500.74 Q2564.73 1500.32 2562.28 1499.46 L2562.28 1494.95 Q2564.22 1496.08 2566.54 1496.66 Q2568.85 1497.24 2571.38 1497.24 Q2575.78 1497.24 2578.07 1495.51 Q2580.38 1493.77 2580.38 1490.46 Q2580.38 1487.4 2578.23 1485.69 Q2576.1 1483.95 2572.28 1483.95 L2568.25 1483.95 L2568.25 1480.11 L2572.47 1480.11 Q2575.91 1480.11 2577.74 1478.75 Q2579.57 1477.36 2579.57 1474.76 Q2579.57 1472.1 2577.67 1470.69 Q2575.8 1469.26 2572.28 1469.26 Q2570.36 1469.26 2568.16 1469.67 Q2565.96 1470.09 2563.32 1470.97 L2563.32 1466.8 Q2565.98 1466.06 2568.3 1465.69 Q2570.64 1465.32 2572.7 1465.32 Q2578.02 1465.32 2581.12 1467.75 Q2584.22 1470.16 2584.22 1474.28 Q2584.22 1477.15 2582.58 1479.14 Q2580.94 1481.11 2577.9 1481.87 Z" fill="#000000" fill-rule="evenodd" fill-opacity="1"></path><path clip-path="url(#clip410)" d="M2102.39 1551.17 L2102.39 1556.71 Q2099.9 1555.44 2097.23 1554.8 Q2094.56 1554.16 2091.69 1554.16 Q2087.33 1554.16 2085.13 1555.5 Q2082.97 1556.84 2082.97 1559.51 Q2082.97 1561.55 2084.53 1562.73 Q2086.09 1563.87 2090.8 1564.92 L2092.81 1565.37 Q2099.04 1566.7 2101.65 1569.16 Q2104.3 1571.57 2104.3 1575.93 Q2104.3 1580.9 2100.35 1583.8 Q2096.43 1586.69 2089.56 1586.69 Q2086.69 1586.69 2083.57 1586.12 Q2080.49 1585.58 2077.05 1584.46 L2077.05 1578.42 Q2080.3 1580.1 2083.45 1580.96 Q2086.6 1581.79 2089.69 1581.79 Q2093.82 1581.79 2096.05 1580.39 Q2098.28 1578.96 2098.28 1576.38 Q2098.28 1573.99 2096.66 1572.72 Q2095.06 1571.45 2089.62 1570.27 L2087.59 1569.79 Q2082.14 1568.65 2079.72 1566.29 Q2077.3 1563.9 2077.3 1559.77 Q2077.3 1554.74 2080.87 1552 Q2084.43 1549.26 2090.99 1549.26 Q2094.24 1549.26 2097.1 1549.74 Q2099.97 1550.22 2102.39 1551.17 Z" fill="#000000" fill-rule="evenodd" fill-opacity="1"></path><path clip-path="url(#clip410)" d="M2129.82 1567.85 Q2122.72 1567.85 2119.99 1569.47 Q2117.25 1571.1 2117.25 1575.01 Q2117.25 1578.13 2119.29 1579.98 Q2121.36 1581.79 2124.89 1581.79 Q2129.76 1581.79 2132.69 1578.35 Q2135.65 1574.88 2135.65 1569.16 L2135.65 1567.85 L2129.82 1567.85 M2141.5 1565.43 L2141.5 1585.77 L2135.65 1585.77 L2135.65 1580.36 Q2133.64 1583.61 2130.65 1585.16 Q2127.66 1586.69 2123.33 1586.69 Q2117.85 1586.69 2114.61 1583.64 Q2111.39 1580.55 2111.39 1575.39 Q2111.39 1569.38 2115.4 1566.32 Q2119.45 1563.27 2127.43 1563.27 L2135.65 1563.27 L2135.65 1562.69 Q2135.65 1558.65 2132.97 1556.46 Q2130.33 1554.23 2125.52 1554.23 Q2122.47 1554.23 2119.57 1554.96 Q2116.68 1555.69 2114 1557.16 L2114 1551.74 Q2117.22 1550.5 2120.24 1549.9 Q2123.26 1549.26 2126.13 1549.26 Q2133.86 1549.26 2137.68 1553.27 Q2141.5 1557.28 2141.5 1565.43 Z" fill="#000000" fill-rule="evenodd" fill-opacity="1"></path><path clip-path="url(#clip410)" d="M2181.32 1556.96 Q2183.52 1553.02 2186.57 1551.14 Q2189.63 1549.26 2193.77 1549.26 Q2199.34 1549.26 2202.36 1553.18 Q2205.38 1557.06 2205.38 1564.25 L2205.38 1585.77 L2199.49 1585.77 L2199.49 1564.44 Q2199.49 1559.32 2197.68 1556.84 Q2195.87 1554.35 2192.14 1554.35 Q2187.59 1554.35 2184.95 1557.38 Q2182.31 1560.4 2182.31 1565.62 L2182.31 1585.77 L2176.42 1585.77 L2176.42 1564.44 Q2176.42 1559.29 2174.6 1556.84 Q2172.79 1554.35 2169 1554.35 Q2164.51 1554.35 2161.87 1557.41 Q2159.23 1560.43 2159.23 1565.62 L2159.23 1585.77 L2153.34 1585.77 L2153.34 1550.12 L2159.23 1550.12 L2159.23 1555.66 Q2161.24 1552.38 2164.04 1550.82 Q2166.84 1549.26 2170.69 1549.26 Q2174.57 1549.26 2177.28 1551.24 Q2180.02 1553.21 2181.32 1556.96 Z" fill="#000000" fill-rule="evenodd" fill-opacity="1"></path><path clip-path="url(#clip410)" d="M2222.73 1580.42 L2222.73 1599.33 L2216.84 1599.33 L2216.84 1550.12 L2222.73 1550.12 L2222.73 1555.53 Q2224.58 1552.35 2227.38 1550.82 Q2230.21 1549.26 2234.12 1549.26 Q2240.62 1549.26 2244.66 1554.42 Q2248.73 1559.57 2248.73 1567.98 Q2248.73 1576.38 2244.66 1581.54 Q2240.62 1586.69 2234.12 1586.69 Q2230.21 1586.69 2227.38 1585.16 Q2224.58 1583.61 2222.73 1580.42 M2242.65 1567.98 Q2242.65 1561.52 2239.98 1557.86 Q2237.34 1554.16 2232.69 1554.16 Q2228.04 1554.16 2225.37 1557.86 Q2222.73 1561.52 2222.73 1567.98 Q2222.73 1574.44 2225.37 1578.13 Q2228.04 1581.79 2232.69 1581.79 Q2237.34 1581.79 2239.98 1578.13 Q2242.65 1574.44 2242.65 1567.98 Z" fill="#000000" fill-rule="evenodd" fill-opacity="1"></path><path clip-path="url(#clip410)" d="M2258.44 1536.24 L2264.3 1536.24 L2264.3 1585.77 L2258.44 1585.77 L2258.44 1536.24 Z" fill="#000000" fill-rule="evenodd" fill-opacity="1"></path><path clip-path="url(#clip410)" d="M2307.04 1566.48 L2307.04 1569.35 L2280.12 1569.35 Q2280.5 1575.39 2283.74 1578.58 Q2287.02 1581.73 2292.85 1581.73 Q2296.22 1581.73 2299.37 1580.9 Q2302.56 1580.07 2305.67 1578.42 L2305.67 1583.96 Q2302.52 1585.29 2299.21 1585.99 Q2295.9 1586.69 2292.5 1586.69 Q2283.97 1586.69 2278.97 1581.73 Q2274 1576.76 2274 1568.3 Q2274 1559.54 2278.72 1554.42 Q2283.46 1549.26 2291.48 1549.26 Q2298.67 1549.26 2302.84 1553.91 Q2307.04 1558.52 2307.04 1566.48 M2301.19 1564.76 Q2301.12 1559.96 2298.48 1557.09 Q2295.87 1554.23 2291.54 1554.23 Q2286.64 1554.23 2283.68 1557 Q2280.75 1559.77 2280.31 1564.79 L2301.19 1564.76 Z" fill="#000000" fill-rule="evenodd" fill-opacity="1"></path><polyline clip-path="url(#clip413)" style="stroke:#000000; stroke-linecap:round; stroke-linejoin:round; stroke-width:2; stroke-opacity:0.1; fill:none" points="
  1631.34,1397.54 2752.76,1397.54 
  "></polyline>
<polyline clip-path="url(#clip413)" style="stroke:#000000; stroke-linecap:round; stroke-linejoin:round; stroke-width:2; stroke-opacity:0.1; fill:none" points="
  1631.34,1099.61 2752.76,1099.61 
  "></polyline>
<polyline clip-path="url(#clip413)" style="stroke:#000000; stroke-linecap:round; stroke-linejoin:round; stroke-width:2; stroke-opacity:0.1; fill:none" points="
  1631.34,801.683 2752.76,801.683 
  "></polyline>
<polyline clip-path="url(#clip413)" style="stroke:#000000; stroke-linecap:round; stroke-linejoin:round; stroke-width:2; stroke-opacity:0.1; fill:none" points="
  1631.34,503.751 2752.76,503.751 
  "></polyline>
<polyline clip-path="url(#clip413)" style="stroke:#000000; stroke-linecap:round; stroke-linejoin:round; stroke-width:2; stroke-opacity:0.1; fill:none" points="
  1631.34,205.82 2752.76,205.82 
  "></polyline>
<polyline clip-path="url(#clip410)" style="stroke:#000000; stroke-linecap:round; stroke-linejoin:round; stroke-width:4; stroke-opacity:1; fill:none" points="
  1631.34,1434.91 1631.34,114.832 
  "></polyline>
<polyline clip-path="url(#clip410)" style="stroke:#000000; stroke-linecap:round; stroke-linejoin:round; stroke-width:4; stroke-opacity:1; fill:none" points="
  1631.34,1397.54 1650.23,1397.54 
  "></polyline>
<polyline clip-path="url(#clip410)" style="stroke:#000000; stroke-linecap:round; stroke-linejoin:round; stroke-width:4; stroke-opacity:1; fill:none" points="
  1631.34,1099.61 1650.23,1099.61 
  "></polyline>
<polyline clip-path="url(#clip410)" style="stroke:#000000; stroke-linecap:round; stroke-linejoin:round; stroke-width:4; stroke-opacity:1; fill:none" points="
  1631.34,801.683 1650.23,801.683 
  "></polyline>
<polyline clip-path="url(#clip410)" style="stroke:#000000; stroke-linecap:round; stroke-linejoin:round; stroke-width:4; stroke-opacity:1; fill:none" points="
  1631.34,503.751 1650.23,503.751 
  "></polyline>
<polyline clip-path="url(#clip410)" style="stroke:#000000; stroke-linecap:round; stroke-linejoin:round; stroke-width:4; stroke-opacity:1; fill:none" points="
  1631.34,205.82 1650.23,205.82 
  "></polyline>
<path clip-path="url(#clip410)" d="M1577.39 1383.34 Q1573.78 1383.34 1571.95 1386.91 Q1570.15 1390.45 1570.15 1397.58 Q1570.15 1404.69 1571.95 1408.25 Q1573.78 1411.79 1577.39 1411.79 Q1581.03 1411.79 1582.83 1408.25 Q1584.66 1404.69 1584.66 1397.58 Q1584.66 1390.45 1582.83 1386.91 Q1581.03 1383.34 1577.39 1383.34 M1577.39 1379.64 Q1583.2 1379.64 1586.26 1384.25 Q1589.34 1388.83 1589.34 1397.58 Q1589.34 1406.31 1586.26 1410.91 Q1583.2 1415.5 1577.39 1415.5 Q1571.58 1415.5 1568.5 1410.91 Q1565.45 1406.31 1565.45 1397.58 Q1565.45 1388.83 1568.5 1384.25 Q1571.58 1379.64 1577.39 1379.64 Z" fill="#000000" fill-rule="evenodd" fill-opacity="1"></path><path clip-path="url(#clip410)" d="M1537.28 1082.33 L1555.63 1082.33 L1555.63 1086.27 L1541.56 1086.27 L1541.56 1094.74 Q1542.58 1094.39 1543.6 1094.23 Q1544.61 1094.05 1545.63 1094.05 Q1551.42 1094.05 1554.8 1097.22 Q1558.18 1100.39 1558.18 1105.81 Q1558.18 1111.38 1554.71 1114.49 Q1551.24 1117.57 1544.92 1117.57 Q1542.74 1117.57 1540.47 1117.19 Q1538.23 1116.82 1535.82 1116.08 L1535.82 1111.38 Q1537.9 1112.52 1540.12 1113.07 Q1542.35 1113.63 1544.82 1113.63 Q1548.83 1113.63 1551.17 1111.52 Q1553.5 1109.42 1553.5 1105.81 Q1553.5 1102.19 1551.17 1100.09 Q1548.83 1097.98 1544.82 1097.98 Q1542.95 1097.98 1541.07 1098.4 Q1539.22 1098.82 1537.28 1099.69 L1537.28 1082.33 Z" fill="#000000" fill-rule="evenodd" fill-opacity="1"></path><path clip-path="url(#clip410)" d="M1577.39 1085.41 Q1573.78 1085.41 1571.95 1088.98 Q1570.15 1092.52 1570.15 1099.65 Q1570.15 1106.75 1571.95 1110.32 Q1573.78 1113.86 1577.39 1113.86 Q1581.03 1113.86 1582.83 1110.32 Q1584.66 1106.75 1584.66 1099.65 Q1584.66 1092.52 1582.83 1088.98 Q1581.03 1085.41 1577.39 1085.41 M1577.39 1081.71 Q1583.2 1081.71 1586.26 1086.32 Q1589.34 1090.9 1589.34 1099.65 Q1589.34 1108.38 1586.26 1112.98 Q1583.2 1117.57 1577.39 1117.57 Q1571.58 1117.57 1568.5 1112.98 Q1565.45 1108.38 1565.45 1099.65 Q1565.45 1090.9 1568.5 1086.32 Q1571.58 1081.71 1577.39 1081.71 Z" fill="#000000" fill-rule="evenodd" fill-opacity="1"></path><path clip-path="url(#clip410)" d="M1507.88 815.027 L1515.52 815.027 L1515.52 788.662 L1507.21 790.329 L1507.21 786.069 L1515.47 784.403 L1520.15 784.403 L1520.15 815.027 L1527.79 815.027 L1527.79 818.963 L1507.88 818.963 L1507.88 815.027 Z" fill="#000000" fill-rule="evenodd" fill-opacity="1"></path><path clip-path="url(#clip410)" d="M1547.23 787.481 Q1543.62 787.481 1541.79 791.046 Q1539.99 794.588 1539.99 801.717 Q1539.99 808.824 1541.79 812.389 Q1543.62 815.93 1547.23 815.93 Q1550.86 815.93 1552.67 812.389 Q1554.5 808.824 1554.5 801.717 Q1554.5 794.588 1552.67 791.046 Q1550.86 787.481 1547.23 787.481 M1547.23 783.778 Q1553.04 783.778 1556.1 788.384 Q1559.18 792.967 1559.18 801.717 Q1559.18 810.444 1556.1 815.051 Q1553.04 819.634 1547.23 819.634 Q1541.42 819.634 1538.34 815.051 Q1535.29 810.444 1535.29 801.717 Q1535.29 792.967 1538.34 788.384 Q1541.42 783.778 1547.23 783.778 Z" fill="#000000" fill-rule="evenodd" fill-opacity="1"></path><path clip-path="url(#clip410)" d="M1577.39 787.481 Q1573.78 787.481 1571.95 791.046 Q1570.15 794.588 1570.15 801.717 Q1570.15 808.824 1571.95 812.389 Q1573.78 815.93 1577.39 815.93 Q1581.03 815.93 1582.83 812.389 Q1584.66 808.824 1584.66 801.717 Q1584.66 794.588 1582.83 791.046 Q1581.03 787.481 1577.39 787.481 M1577.39 783.778 Q1583.2 783.778 1586.26 788.384 Q1589.34 792.967 1589.34 801.717 Q1589.34 810.444 1586.26 815.051 Q1583.2 819.634 1577.39 819.634 Q1571.58 819.634 1568.5 815.051 Q1565.45 810.444 1565.45 801.717 Q1565.45 792.967 1568.5 788.384 Q1571.58 783.778 1577.39 783.778 Z" fill="#000000" fill-rule="evenodd" fill-opacity="1"></path><path clip-path="url(#clip410)" d="M1507.88 517.096 L1515.52 517.096 L1515.52 490.731 L1507.21 492.397 L1507.21 488.138 L1515.47 486.471 L1520.15 486.471 L1520.15 517.096 L1527.79 517.096 L1527.79 521.031 L1507.88 521.031 L1507.88 517.096 Z" fill="#000000" fill-rule="evenodd" fill-opacity="1"></path><path clip-path="url(#clip410)" d="M1537.28 486.471 L1555.63 486.471 L1555.63 490.407 L1541.56 490.407 L1541.56 498.879 Q1542.58 498.532 1543.6 498.37 Q1544.61 498.184 1545.63 498.184 Q1551.42 498.184 1554.8 501.356 Q1558.18 504.527 1558.18 509.944 Q1558.18 515.522 1554.71 518.624 Q1551.24 521.703 1544.92 521.703 Q1542.74 521.703 1540.47 521.332 Q1538.23 520.962 1535.82 520.221 L1535.82 515.522 Q1537.9 516.656 1540.12 517.212 Q1542.35 517.768 1544.82 517.768 Q1548.83 517.768 1551.17 515.661 Q1553.5 513.555 1553.5 509.944 Q1553.5 506.332 1551.17 504.226 Q1548.83 502.12 1544.82 502.12 Q1542.95 502.12 1541.07 502.536 Q1539.22 502.953 1537.28 503.832 L1537.28 486.471 Z" fill="#000000" fill-rule="evenodd" fill-opacity="1"></path><path clip-path="url(#clip410)" d="M1577.39 489.55 Q1573.78 489.55 1571.95 493.115 Q1570.15 496.657 1570.15 503.786 Q1570.15 510.893 1571.95 514.457 Q1573.78 517.999 1577.39 517.999 Q1581.03 517.999 1582.83 514.457 Q1584.66 510.893 1584.66 503.786 Q1584.66 496.657 1582.83 493.115 Q1581.03 489.55 1577.39 489.55 M1577.39 485.846 Q1583.2 485.846 1586.26 490.453 Q1589.34 495.036 1589.34 503.786 Q1589.34 512.513 1586.26 517.119 Q1583.2 521.703 1577.39 521.703 Q1571.58 521.703 1568.5 517.119 Q1565.45 512.513 1565.45 503.786 Q1565.45 495.036 1568.5 490.453 Q1571.58 485.846 1577.39 485.846 Z" fill="#000000" fill-rule="evenodd" fill-opacity="1"></path><path clip-path="url(#clip410)" d="M1511.1 219.165 L1527.42 219.165 L1527.42 223.1 L1505.47 223.1 L1505.47 219.165 Q1508.13 216.411 1512.72 211.781 Q1517.32 207.128 1518.5 205.786 Q1520.75 203.262 1521.63 201.526 Q1522.53 199.767 1522.53 198.077 Q1522.53 195.323 1520.59 193.587 Q1518.67 191.85 1515.56 191.85 Q1513.37 191.85 1510.91 192.614 Q1508.48 193.378 1505.7 194.929 L1505.7 190.207 Q1508.53 189.073 1510.98 188.494 Q1513.43 187.915 1515.47 187.915 Q1520.84 187.915 1524.04 190.6 Q1527.23 193.286 1527.23 197.776 Q1527.23 199.906 1526.42 201.827 Q1525.63 203.725 1523.53 206.318 Q1522.95 206.989 1519.85 210.207 Q1516.74 213.401 1511.1 219.165 Z" fill="#000000" fill-rule="evenodd" fill-opacity="1"></path><path clip-path="url(#clip410)" d="M1547.23 191.619 Q1543.62 191.619 1541.79 195.184 Q1539.99 198.725 1539.99 205.855 Q1539.99 212.961 1541.79 216.526 Q1543.62 220.068 1547.23 220.068 Q1550.86 220.068 1552.67 216.526 Q1554.5 212.961 1554.5 205.855 Q1554.5 198.725 1552.67 195.184 Q1550.86 191.619 1547.23 191.619 M1547.23 187.915 Q1553.04 187.915 1556.1 192.522 Q1559.18 197.105 1559.18 205.855 Q1559.18 214.582 1556.1 219.188 Q1553.04 223.772 1547.23 223.772 Q1541.42 223.772 1538.34 219.188 Q1535.29 214.582 1535.29 205.855 Q1535.29 197.105 1538.34 192.522 Q1541.42 187.915 1547.23 187.915 Z" fill="#000000" fill-rule="evenodd" fill-opacity="1"></path><path clip-path="url(#clip410)" d="M1577.39 191.619 Q1573.78 191.619 1571.95 195.184 Q1570.15 198.725 1570.15 205.855 Q1570.15 212.961 1571.95 216.526 Q1573.78 220.068 1577.39 220.068 Q1581.03 220.068 1582.83 216.526 Q1584.66 212.961 1584.66 205.855 Q1584.66 198.725 1582.83 195.184 Q1581.03 191.619 1577.39 191.619 M1577.39 187.915 Q1583.2 187.915 1586.26 192.522 Q1589.34 197.105 1589.34 205.855 Q1589.34 214.582 1586.26 219.188 Q1583.2 223.772 1577.39 223.772 Q1571.58 223.772 1568.5 219.188 Q1565.45 214.582 1565.45 205.855 Q1565.45 197.105 1568.5 192.522 Q1571.58 187.915 1577.39 187.915 Z" fill="#000000" fill-rule="evenodd" fill-opacity="1"></path><path clip-path="url(#clip410)" d="M1414.94 852.212 L1420.41 852.212 Q1419.04 854.695 1418.37 857.209 Q1417.67 859.692 1417.67 862.238 Q1417.67 867.935 1421.3 871.086 Q1424.9 874.238 1431.42 874.238 Q1437.95 874.238 1441.58 871.086 Q1445.17 867.935 1445.17 862.238 Q1445.17 859.692 1444.5 857.209 Q1443.8 854.695 1442.44 852.212 L1447.85 852.212 Q1448.99 854.663 1449.57 857.305 Q1450.14 859.915 1450.14 862.875 Q1450.14 870.927 1445.08 875.67 Q1440.02 880.412 1431.42 880.412 Q1422.7 880.412 1417.71 875.638 Q1412.71 870.832 1412.71 862.493 Q1412.71 859.787 1413.28 857.209 Q1413.82 854.631 1414.94 852.212 Z" fill="#000000" fill-rule="evenodd" fill-opacity="1"></path><path clip-path="url(#clip410)" d="M1417.67 828.213 Q1417.67 832.924 1421.37 835.661 Q1425.03 838.399 1431.42 838.399 Q1437.82 838.399 1441.51 835.693 Q1445.17 832.956 1445.17 828.213 Q1445.17 823.535 1441.48 820.797 Q1437.79 818.06 1431.42 818.06 Q1425.09 818.06 1421.4 820.797 Q1417.67 823.535 1417.67 828.213 M1412.71 828.213 Q1412.71 820.575 1417.67 816.214 Q1422.64 811.854 1431.42 811.854 Q1440.18 811.854 1445.17 816.214 Q1450.14 820.575 1450.14 828.213 Q1450.14 835.884 1445.17 840.245 Q1440.18 844.573 1431.42 844.573 Q1422.64 844.573 1417.67 840.245 Q1412.71 835.884 1412.71 828.213 Z" fill="#000000" fill-rule="evenodd" fill-opacity="1"></path><path clip-path="url(#clip410)" d="M1435.15 802.751 L1413.57 802.751 L1413.57 796.894 L1434.92 796.894 Q1439.99 796.894 1442.53 794.921 Q1445.05 792.947 1445.05 789.001 Q1445.05 784.258 1442.02 781.521 Q1439 778.752 1433.78 778.752 L1413.57 778.752 L1413.57 772.895 L1449.22 772.895 L1449.22 778.752 L1443.74 778.752 Q1446.99 780.884 1448.58 783.717 Q1450.14 786.518 1450.14 790.242 Q1450.14 796.385 1446.32 799.568 Q1442.5 802.751 1435.15 802.751 M1412.71 788.014 L1412.71 788.014 Z" fill="#000000" fill-rule="evenodd" fill-opacity="1"></path><path clip-path="url(#clip410)" d="M1427.7 731.2 L1449.22 731.2 L1449.22 737.057 L1427.89 737.057 Q1422.83 737.057 1420.32 739.03 Q1417.8 741.003 1417.8 744.95 Q1417.8 749.692 1420.82 752.43 Q1423.85 755.167 1429.07 755.167 L1449.22 755.167 L1449.22 761.055 L1413.57 761.055 L1413.57 755.167 L1419.11 755.167 Q1415.89 753.066 1414.3 750.234 Q1412.71 747.369 1412.71 743.645 Q1412.71 737.502 1416.53 734.351 Q1420.32 731.2 1427.7 731.2 Z" fill="#000000" fill-rule="evenodd" fill-opacity="1"></path><path clip-path="url(#clip410)" d="M1403.45 713.726 L1413.57 713.726 L1413.57 701.663 L1418.12 701.663 L1418.12 713.726 L1437.47 713.726 Q1441.83 713.726 1443.07 712.549 Q1444.31 711.339 1444.31 707.679 L1444.31 701.663 L1449.22 701.663 L1449.22 707.679 Q1449.22 714.458 1446.7 717.036 Q1444.15 719.615 1437.47 719.615 L1418.12 719.615 L1418.12 723.911 L1413.57 723.911 L1413.57 719.615 L1403.45 719.615 L1403.45 713.726 Z" fill="#000000" fill-rule="evenodd" fill-opacity="1"></path><path clip-path="url(#clip410)" d="M1414.62 671.235 L1420.16 671.235 Q1418.88 673.718 1418.25 676.391 Q1417.61 679.065 1417.61 681.93 Q1417.61 686.29 1418.95 688.486 Q1420.28 690.651 1422.96 690.651 Q1424.99 690.651 1426.17 689.091 Q1427.32 687.531 1428.37 682.821 L1428.81 680.816 Q1430.15 674.577 1432.6 671.967 Q1435.02 669.325 1439.38 669.325 Q1444.35 669.325 1447.24 673.272 Q1450.14 677.187 1450.14 684.062 Q1450.14 686.927 1449.57 690.046 Q1449.02 693.133 1447.91 696.571 L1441.86 696.571 Q1443.55 693.324 1444.41 690.173 Q1445.24 687.022 1445.24 683.935 Q1445.24 679.797 1443.84 677.569 Q1442.4 675.341 1439.83 675.341 Q1437.44 675.341 1436.17 676.964 Q1434.89 678.556 1433.72 683.998 L1433.24 686.035 Q1432.09 691.478 1429.74 693.897 Q1427.35 696.316 1423.21 696.316 Q1418.18 696.316 1415.45 692.751 Q1412.71 689.186 1412.71 682.63 Q1412.71 679.383 1413.19 676.519 Q1413.66 673.654 1414.62 671.235 Z" fill="#000000" fill-rule="evenodd" fill-opacity="1"></path><path clip-path="url(#clip410)" d="M1780.62 27.2059 L1788.07 27.2059 L1788.07 72.576 L1780.62 72.576 L1780.62 27.2059 M1780.62 9.54393 L1788.07 9.54393 L1788.07 18.9825 L1780.62 18.9825 L1780.62 9.54393 Z" fill="#000000" fill-rule="evenodd" fill-opacity="1"></path><path clip-path="url(#clip410)" d="M1841.38 45.1919 L1841.38 72.576 L1833.93 72.576 L1833.93 45.4349 Q1833.93 38.994 1831.41 35.7938 Q1828.9 32.5936 1823.88 32.5936 Q1817.84 32.5936 1814.36 36.4419 Q1810.88 40.2903 1810.88 46.9338 L1810.88 72.576 L1803.38 72.576 L1803.38 27.2059 L1810.88 27.2059 L1810.88 34.2544 Q1813.55 30.163 1817.16 28.1376 Q1820.8 26.1121 1825.54 26.1121 Q1833.36 26.1121 1837.37 30.9732 Q1841.38 35.7938 1841.38 45.1919 Z" fill="#000000" fill-rule="evenodd" fill-opacity="1"></path><path clip-path="url(#clip410)" d="M1850.9 27.2059 L1858.8 27.2059 L1872.98 65.2844 L1887.16 27.2059 L1895.05 27.2059 L1878.04 72.576 L1867.91 72.576 L1850.9 27.2059 Z" fill="#000000" fill-rule="evenodd" fill-opacity="1"></path><path clip-path="url(#clip410)" d="M1944.15 48.0275 L1944.15 51.6733 L1909.88 51.6733 Q1910.37 59.3701 1914.5 63.421 Q1918.67 67.4314 1926.08 67.4314 Q1930.38 67.4314 1934.39 66.3781 Q1938.44 65.3249 1942.41 63.2184 L1942.41 70.267 Q1938.4 71.9684 1934.19 72.8596 Q1929.97 73.7508 1925.64 73.7508 Q1914.78 73.7508 1908.42 67.4314 Q1902.1 61.1119 1902.1 50.3365 Q1902.1 39.1965 1908.1 32.6746 Q1914.13 26.1121 1924.34 26.1121 Q1933.5 26.1121 1938.8 32.0264 Q1944.15 37.9003 1944.15 48.0275 M1936.7 45.84 Q1936.62 39.7232 1933.25 36.0774 Q1929.93 32.4315 1924.42 32.4315 Q1918.19 32.4315 1914.42 35.9558 Q1910.69 39.4801 1910.12 45.8805 L1936.7 45.84 Z" fill="#000000" fill-rule="evenodd" fill-opacity="1"></path><path clip-path="url(#clip410)" d="M1982.68 34.1734 Q1981.42 33.4443 1979.92 33.1202 Q1978.46 32.7556 1976.68 32.7556 Q1970.36 32.7556 1966.96 36.8875 Q1963.6 40.9789 1963.6 48.6757 L1963.6 72.576 L1956.1 72.576 L1956.1 27.2059 L1963.6 27.2059 L1963.6 34.2544 Q1965.95 30.1225 1969.71 28.1376 Q1973.48 26.1121 1978.87 26.1121 Q1979.64 26.1121 1980.57 26.2337 Q1981.5 26.3147 1982.63 26.5172 L1982.68 34.1734 Z" fill="#000000" fill-rule="evenodd" fill-opacity="1"></path><path clip-path="url(#clip410)" d="M2019.42 28.5427 L2019.42 35.5912 Q2016.26 33.9709 2012.85 33.1607 Q2009.45 32.3505 2005.81 32.3505 Q2000.26 32.3505 1997.46 34.0519 Q1994.71 35.7533 1994.71 39.156 Q1994.71 41.7486 1996.69 43.2475 Q1998.68 44.7058 2004.67 46.0426 L2007.22 46.6097 Q2015.16 48.3111 2018.49 51.4303 Q2021.85 54.509 2021.85 60.0587 Q2021.85 66.3781 2016.82 70.0644 Q2011.84 73.7508 2003.09 73.7508 Q1999.45 73.7508 1995.48 73.0216 Q1991.55 72.3329 1987.17 70.9151 L1987.17 63.2184 Q1991.3 65.3654 1995.31 66.4591 Q1999.32 67.5124 2003.25 67.5124 Q2008.52 67.5124 2011.36 65.73 Q2014.19 63.9071 2014.19 60.6258 Q2014.19 57.5877 2012.13 55.9673 Q2010.1 54.3469 2003.17 52.8481 L2000.58 52.2405 Q1993.65 50.7821 1990.57 47.7845 Q1987.5 44.7463 1987.5 39.4801 Q1987.5 33.0797 1992.03 29.5959 Q1996.57 26.1121 2004.91 26.1121 Q2009.05 26.1121 2012.69 26.7198 Q2016.34 27.3274 2019.42 28.5427 Z" fill="#000000" fill-rule="evenodd" fill-opacity="1"></path><path clip-path="url(#clip410)" d="M2072.52 48.0275 L2072.52 51.6733 L2038.25 51.6733 Q2038.74 59.3701 2042.87 63.421 Q2047.04 67.4314 2054.46 67.4314 Q2058.75 67.4314 2062.76 66.3781 Q2066.81 65.3249 2070.78 63.2184 L2070.78 70.267 Q2066.77 71.9684 2062.56 72.8596 Q2058.35 73.7508 2054.01 73.7508 Q2043.16 73.7508 2036.8 67.4314 Q2030.48 61.1119 2030.48 50.3365 Q2030.48 39.1965 2036.47 32.6746 Q2042.51 26.1121 2052.72 26.1121 Q2061.87 26.1121 2067.18 32.0264 Q2072.52 37.9003 2072.52 48.0275 M2065.07 45.84 Q2064.99 39.7232 2061.63 36.0774 Q2058.31 32.4315 2052.8 32.4315 Q2046.56 32.4315 2042.79 35.9558 Q2039.06 39.4801 2038.5 45.8805 L2065.07 45.84 Z" fill="#000000" fill-rule="evenodd" fill-opacity="1"></path><path clip-path="url(#clip410)" d="M2111.13 9.54393 L2118.58 9.54393 L2118.58 72.576 L2111.13 72.576 L2111.13 9.54393 Z" fill="#000000" fill-rule="evenodd" fill-opacity="1"></path><path clip-path="url(#clip410)" d="M2172.99 48.0275 L2172.99 51.6733 L2138.72 51.6733 Q2139.2 59.3701 2143.33 63.421 Q2147.51 67.4314 2154.92 67.4314 Q2159.21 67.4314 2163.22 66.3781 Q2167.28 65.3249 2171.24 63.2184 L2171.24 70.267 Q2167.23 71.9684 2163.02 72.8596 Q2158.81 73.7508 2154.47 73.7508 Q2143.62 73.7508 2137.26 67.4314 Q2130.94 61.1119 2130.94 50.3365 Q2130.94 39.1965 2136.93 32.6746 Q2142.97 26.1121 2153.18 26.1121 Q2162.33 26.1121 2167.64 32.0264 Q2172.99 37.9003 2172.99 48.0275 M2165.53 45.84 Q2165.45 39.7232 2162.09 36.0774 Q2158.77 32.4315 2153.26 32.4315 Q2147.02 32.4315 2143.25 35.9558 Q2139.53 39.4801 2138.96 45.8805 L2165.53 45.84 Z" fill="#000000" fill-rule="evenodd" fill-opacity="1"></path><path clip-path="url(#clip410)" d="M2222.93 45.1919 L2222.93 72.576 L2215.48 72.576 L2215.48 45.4349 Q2215.48 38.994 2212.97 35.7938 Q2210.46 32.5936 2205.43 32.5936 Q2199.4 32.5936 2195.92 36.4419 Q2192.43 40.2903 2192.43 46.9338 L2192.43 72.576 L2184.94 72.576 L2184.94 27.2059 L2192.43 27.2059 L2192.43 34.2544 Q2195.1 30.163 2198.71 28.1376 Q2202.36 26.1121 2207.1 26.1121 Q2214.91 26.1121 2218.92 30.9732 Q2222.93 35.7938 2222.93 45.1919 Z" fill="#000000" fill-rule="evenodd" fill-opacity="1"></path><path clip-path="url(#clip410)" d="M2267.66 49.3643 Q2267.66 41.2625 2264.29 36.8065 Q2260.97 32.3505 2254.94 32.3505 Q2248.94 32.3505 2245.58 36.8065 Q2242.26 41.2625 2242.26 49.3643 Q2242.26 57.4256 2245.58 61.8816 Q2248.94 66.3376 2254.94 66.3376 Q2260.97 66.3376 2264.29 61.8816 Q2267.66 57.4256 2267.66 49.3643 M2275.11 66.9452 Q2275.11 78.5308 2269.97 84.1616 Q2264.82 89.8329 2254.21 89.8329 Q2250.28 89.8329 2246.79 89.2252 Q2243.31 88.6581 2240.03 87.4428 L2240.03 80.1917 Q2243.31 81.9741 2246.51 82.8248 Q2249.71 83.6755 2253.03 83.6755 Q2260.36 83.6755 2264.01 79.8271 Q2267.66 76.0193 2267.66 68.282 L2267.66 64.5957 Q2265.35 68.6061 2261.74 70.5911 Q2258.14 72.576 2253.11 72.576 Q2244.77 72.576 2239.66 66.2161 Q2234.56 59.8562 2234.56 49.3643 Q2234.56 38.832 2239.66 32.472 Q2244.77 26.1121 2253.11 26.1121 Q2258.14 26.1121 2261.74 28.0971 Q2265.35 30.082 2267.66 34.0924 L2267.66 27.2059 L2275.11 27.2059 L2275.11 66.9452 Z" fill="#000000" fill-rule="evenodd" fill-opacity="1"></path><path clip-path="url(#clip410)" d="M2297.84 14.324 L2297.84 27.2059 L2313.19 27.2059 L2313.19 32.9987 L2297.84 32.9987 L2297.84 57.6282 Q2297.84 63.1779 2299.33 64.7578 Q2300.87 66.3376 2305.53 66.3376 L2313.19 66.3376 L2313.19 72.576 L2305.53 72.576 Q2296.9 72.576 2293.62 69.3758 Q2290.34 66.1351 2290.34 57.6282 L2290.34 32.9987 L2284.87 32.9987 L2284.87 27.2059 L2290.34 27.2059 L2290.34 14.324 L2297.84 14.324 Z" fill="#000000" fill-rule="evenodd" fill-opacity="1"></path><path clip-path="url(#clip410)" d="M2360.71 45.1919 L2360.71 72.576 L2353.25 72.576 L2353.25 45.4349 Q2353.25 38.994 2350.74 35.7938 Q2348.23 32.5936 2343.21 32.5936 Q2337.17 32.5936 2333.69 36.4419 Q2330.2 40.2903 2330.2 46.9338 L2330.2 72.576 L2322.71 72.576 L2322.71 9.54393 L2330.2 9.54393 L2330.2 34.2544 Q2332.88 30.163 2336.48 28.1376 Q2340.13 26.1121 2344.87 26.1121 Q2352.68 26.1121 2356.7 30.9732 Q2360.71 35.7938 2360.71 45.1919 Z" fill="#000000" fill-rule="evenodd" fill-opacity="1"></path><path clip-path="url(#clip410)" d="M2430.87 28.5427 L2430.87 35.5912 Q2427.71 33.9709 2424.3 33.1607 Q2420.9 32.3505 2417.26 32.3505 Q2411.71 32.3505 2408.91 34.0519 Q2406.16 35.7533 2406.16 39.156 Q2406.16 41.7486 2408.14 43.2475 Q2410.13 44.7058 2416.12 46.0426 L2418.67 46.6097 Q2426.61 48.3111 2429.94 51.4303 Q2433.3 54.509 2433.3 60.0587 Q2433.3 66.3781 2428.27 70.0644 Q2423.29 73.7508 2414.54 73.7508 Q2410.9 73.7508 2406.93 73.0216 Q2403 72.3329 2398.62 70.9151 L2398.62 63.2184 Q2402.75 65.3654 2406.76 66.4591 Q2410.77 67.5124 2414.7 67.5124 Q2419.97 67.5124 2422.81 65.73 Q2425.64 63.9071 2425.64 60.6258 Q2425.64 57.5877 2423.58 55.9673 Q2421.55 54.3469 2414.62 52.8481 L2412.03 52.2405 Q2405.1 50.7821 2402.03 47.7845 Q2398.95 44.7463 2398.95 39.4801 Q2398.95 33.0797 2403.48 29.5959 Q2408.02 26.1121 2416.37 26.1121 Q2420.5 26.1121 2424.14 26.7198 Q2427.79 27.3274 2430.87 28.5427 Z" fill="#000000" fill-rule="evenodd" fill-opacity="1"></path><path clip-path="url(#clip410)" d="M2477.82 28.9478 L2477.82 35.9153 Q2474.66 34.1734 2471.46 33.3227 Q2468.3 32.4315 2465.06 32.4315 Q2457.81 32.4315 2453.8 37.0496 Q2449.79 41.6271 2449.79 49.9314 Q2449.79 58.2358 2453.8 62.8538 Q2457.81 67.4314 2465.06 67.4314 Q2468.3 67.4314 2471.46 66.5807 Q2474.66 65.6895 2477.82 63.9476 L2477.82 70.8341 Q2474.7 72.2924 2471.34 73.0216 Q2468.01 73.7508 2464.25 73.7508 Q2454 73.7508 2447.96 67.3098 Q2441.93 60.8689 2441.93 49.9314 Q2441.93 38.832 2448 32.472 Q2454.12 26.1121 2464.73 26.1121 Q2468.18 26.1121 2471.46 26.8413 Q2474.74 27.5299 2477.82 28.9478 Z" fill="#000000" fill-rule="evenodd" fill-opacity="1"></path><path clip-path="url(#clip410)" d="M2511.4 49.7694 Q2502.37 49.7694 2498.88 51.8354 Q2495.4 53.9013 2495.4 58.8839 Q2495.4 62.8538 2497.99 65.2034 Q2500.62 67.5124 2505.12 67.5124 Q2511.32 67.5124 2515.05 63.1374 Q2518.81 58.7219 2518.81 51.4303 L2518.81 49.7694 L2511.4 49.7694 M2526.27 46.6907 L2526.27 72.576 L2518.81 72.576 L2518.81 65.6895 Q2516.26 69.8214 2512.45 71.8063 Q2508.64 73.7508 2503.14 73.7508 Q2496.17 73.7508 2492.04 69.8619 Q2487.94 65.9325 2487.94 59.3701 Q2487.94 51.7138 2493.05 47.825 Q2498.19 43.9361 2508.36 43.9361 L2518.81 43.9361 L2518.81 43.2069 Q2518.81 38.0623 2515.41 35.2672 Q2512.05 32.4315 2505.93 32.4315 Q2502.04 32.4315 2498.36 33.3632 Q2494.67 34.295 2491.27 36.1584 L2491.27 29.2718 Q2495.36 27.692 2499.21 26.9223 Q2503.05 26.1121 2506.7 26.1121 Q2516.54 26.1121 2521.41 31.2163 Q2526.27 36.3204 2526.27 46.6907 Z" fill="#000000" fill-rule="evenodd" fill-opacity="1"></path><path clip-path="url(#clip410)" d="M2541.62 9.54393 L2549.07 9.54393 L2549.07 72.576 L2541.62 72.576 L2541.62 9.54393 Z" fill="#000000" fill-rule="evenodd" fill-opacity="1"></path><path clip-path="url(#clip410)" d="M2603.48 48.0275 L2603.48 51.6733 L2569.21 51.6733 Q2569.69 59.3701 2573.82 63.421 Q2578 67.4314 2585.41 67.4314 Q2589.7 67.4314 2593.71 66.3781 Q2597.76 65.3249 2601.73 63.2184 L2601.73 70.267 Q2597.72 71.9684 2593.51 72.8596 Q2589.3 73.7508 2584.96 73.7508 Q2574.11 73.7508 2567.75 67.4314 Q2561.43 61.1119 2561.43 50.3365 Q2561.43 39.1965 2567.42 32.6746 Q2573.46 26.1121 2583.67 26.1121 Q2592.82 26.1121 2598.13 32.0264 Q2603.48 37.9003 2603.48 48.0275 M2596.02 45.84 Q2595.94 39.7232 2592.58 36.0774 Q2589.26 32.4315 2583.75 32.4315 Q2577.51 32.4315 2573.74 35.9558 Q2570.02 39.4801 2569.45 45.8805 L2596.02 45.84 Z" fill="#000000" fill-rule="evenodd" fill-opacity="1"></path><path clip-path="url(#clip413)" d="
M1693.02 1272.41 L1693.02 1397.54 L1722.37 1397.54 L1722.37 1272.41 L1693.02 1272.41 L1693.02 1272.41  Z
  " fill="#009af9" fill-rule="evenodd" fill-opacity="1"></path>
<polyline clip-path="url(#clip413)" style="stroke:#000000; stroke-linecap:round; stroke-linejoin:round; stroke-width:4; stroke-opacity:1; fill:none" points="
  1693.02,1272.41 1693.02,1397.54 1722.37,1397.54 1722.37,1272.41 1693.02,1272.41 
  "></polyline>
<path clip-path="url(#clip413)" d="
M1722.37 759.972 L1722.37 1397.54 L1751.73 1397.54 L1751.73 759.972 L1722.37 759.972 L1722.37 759.972  Z
  " fill="#009af9" fill-rule="evenodd" fill-opacity="1"></path>
<polyline clip-path="url(#clip413)" style="stroke:#000000; stroke-linecap:round; stroke-linejoin:round; stroke-width:4; stroke-opacity:1; fill:none" points="
  1722.37,759.972 1722.37,1397.54 1751.73,1397.54 1751.73,759.972 1722.37,759.972 
  "></polyline>
<path clip-path="url(#clip413)" d="
M1751.73 432.248 L1751.73 1397.54 L1781.08 1397.54 L1781.08 432.248 L1751.73 432.248 L1751.73 432.248  Z
  " fill="#009af9" fill-rule="evenodd" fill-opacity="1"></path>
<polyline clip-path="url(#clip413)" style="stroke:#000000; stroke-linecap:round; stroke-linejoin:round; stroke-width:4; stroke-opacity:1; fill:none" points="
  1751.73,432.248 1751.73,1397.54 1781.08,1397.54 1781.08,432.248 1751.73,432.248 
  "></polyline>
<path clip-path="url(#clip413)" d="
M1781.08 265.407 L1781.08 1397.54 L1810.44 1397.54 L1810.44 265.407 L1781.08 265.407 L1781.08 265.407  Z
  " fill="#009af9" fill-rule="evenodd" fill-opacity="1"></path>
<polyline clip-path="url(#clip413)" style="stroke:#000000; stroke-linecap:round; stroke-linejoin:round; stroke-width:4; stroke-opacity:1; fill:none" points="
  1781.08,265.407 1781.08,1397.54 1810.44,1397.54 1810.44,265.407 1781.08,265.407 
  "></polyline>
<path clip-path="url(#clip413)" d="
M1810.44 152.193 L1810.44 1397.54 L1839.79 1397.54 L1839.79 152.193 L1810.44 152.193 L1810.44 152.193  Z
  " fill="#009af9" fill-rule="evenodd" fill-opacity="1"></path>
<polyline clip-path="url(#clip413)" style="stroke:#000000; stroke-linecap:round; stroke-linejoin:round; stroke-width:4; stroke-opacity:1; fill:none" points="
  1810.44,152.193 1810.44,1397.54 1839.79,1397.54 1839.79,152.193 1810.44,152.193 
  "></polyline>
<path clip-path="url(#clip413)" d="
M1839.79 396.496 L1839.79 1397.54 L1869.14 1397.54 L1869.14 396.496 L1839.79 396.496 L1839.79 396.496  Z
  " fill="#009af9" fill-rule="evenodd" fill-opacity="1"></path>
<polyline clip-path="url(#clip413)" style="stroke:#000000; stroke-linecap:round; stroke-linejoin:round; stroke-width:4; stroke-opacity:1; fill:none" points="
  1839.79,396.496 1839.79,1397.54 1869.14,1397.54 1869.14,396.496 1839.79,396.496 
  "></polyline>
<path clip-path="url(#clip413)" d="
M1869.14 259.448 L1869.14 1397.54 L1898.5 1397.54 L1898.5 259.448 L1869.14 259.448 L1869.14 259.448  Z
  " fill="#009af9" fill-rule="evenodd" fill-opacity="1"></path>
<polyline clip-path="url(#clip413)" style="stroke:#000000; stroke-linecap:round; stroke-linejoin:round; stroke-width:4; stroke-opacity:1; fill:none" points="
  1869.14,259.448 1869.14,1397.54 1898.5,1397.54 1898.5,259.448 1869.14,259.448 
  "></polyline>
<path clip-path="url(#clip413)" d="
M1898.5 533.545 L1898.5 1397.54 L1927.85 1397.54 L1927.85 533.545 L1898.5 533.545 L1898.5 533.545  Z
  " fill="#009af9" fill-rule="evenodd" fill-opacity="1"></path>
<polyline clip-path="url(#clip413)" style="stroke:#000000; stroke-linecap:round; stroke-linejoin:round; stroke-width:4; stroke-opacity:1; fill:none" points="
  1898.5,533.545 1898.5,1397.54 1927.85,1397.54 1927.85,533.545 1898.5,533.545 
  "></polyline>
<path clip-path="url(#clip413)" d="
M1927.85 479.917 L1927.85 1397.54 L1957.21 1397.54 L1957.21 479.917 L1927.85 479.917 L1927.85 479.917  Z
  " fill="#009af9" fill-rule="evenodd" fill-opacity="1"></path>
<polyline clip-path="url(#clip413)" style="stroke:#000000; stroke-linecap:round; stroke-linejoin:round; stroke-width:4; stroke-opacity:1; fill:none" points="
  1927.85,479.917 1927.85,1397.54 1957.21,1397.54 1957.21,479.917 1927.85,479.917 
  "></polyline>
<path clip-path="url(#clip413)" d="
M1957.21 718.262 L1957.21 1397.54 L1986.56 1397.54 L1986.56 718.262 L1957.21 718.262 L1957.21 718.262  Z
  " fill="#009af9" fill-rule="evenodd" fill-opacity="1"></path>
<polyline clip-path="url(#clip413)" style="stroke:#000000; stroke-linecap:round; stroke-linejoin:round; stroke-width:4; stroke-opacity:1; fill:none" points="
  1957.21,718.262 1957.21,1397.54 1986.56,1397.54 1986.56,718.262 1957.21,718.262 
  "></polyline>
<path clip-path="url(#clip413)" d="
M1986.56 807.641 L1986.56 1397.54 L2015.92 1397.54 L2015.92 807.641 L1986.56 807.641 L1986.56 807.641  Z
  " fill="#009af9" fill-rule="evenodd" fill-opacity="1"></path>
<polyline clip-path="url(#clip413)" style="stroke:#000000; stroke-linecap:round; stroke-linejoin:round; stroke-width:4; stroke-opacity:1; fill:none" points="
  1986.56,807.641 1986.56,1397.54 2015.92,1397.54 2015.92,807.641 1986.56,807.641 
  "></polyline>
<path clip-path="url(#clip413)" d="
M2015.92 897.021 L2015.92 1397.54 L2045.27 1397.54 L2045.27 897.021 L2015.92 897.021 L2015.92 897.021  Z
  " fill="#009af9" fill-rule="evenodd" fill-opacity="1"></path>
<polyline clip-path="url(#clip413)" style="stroke:#000000; stroke-linecap:round; stroke-linejoin:round; stroke-width:4; stroke-opacity:1; fill:none" points="
  2015.92,897.021 2015.92,1397.54 2045.27,1397.54 2045.27,897.021 2015.92,897.021 
  "></polyline>
<path clip-path="url(#clip413)" d="
M2045.27 855.31 L2045.27 1397.54 L2074.63 1397.54 L2074.63 855.31 L2045.27 855.31 L2045.27 855.31  Z
  " fill="#009af9" fill-rule="evenodd" fill-opacity="1"></path>
<polyline clip-path="url(#clip413)" style="stroke:#000000; stroke-linecap:round; stroke-linejoin:round; stroke-width:4; stroke-opacity:1; fill:none" points="
  2045.27,855.31 2045.27,1397.54 2074.63,1397.54 2074.63,855.31 2045.27,855.31 
  "></polyline>
<path clip-path="url(#clip413)" d="
M2074.63 1040.03 L2074.63 1397.54 L2103.98 1397.54 L2103.98 1040.03 L2074.63 1040.03 L2074.63 1040.03  Z
  " fill="#009af9" fill-rule="evenodd" fill-opacity="1"></path>
<polyline clip-path="url(#clip413)" style="stroke:#000000; stroke-linecap:round; stroke-linejoin:round; stroke-width:4; stroke-opacity:1; fill:none" points="
  2074.63,1040.03 2074.63,1397.54 2103.98,1397.54 2103.98,1040.03 2074.63,1040.03 
  "></polyline>
<path clip-path="url(#clip413)" d="
M2103.98 1188.99 L2103.98 1397.54 L2133.34 1397.54 L2133.34 1188.99 L2103.98 1188.99 L2103.98 1188.99  Z
  " fill="#009af9" fill-rule="evenodd" fill-opacity="1"></path>
<polyline clip-path="url(#clip413)" style="stroke:#000000; stroke-linecap:round; stroke-linejoin:round; stroke-width:4; stroke-opacity:1; fill:none" points="
  2103.98,1188.99 2103.98,1397.54 2133.34,1397.54 2133.34,1188.99 2103.98,1188.99 
  "></polyline>
<path clip-path="url(#clip413)" d="
M2133.34 1177.08 L2133.34 1397.54 L2162.69 1397.54 L2162.69 1177.08 L2133.34 1177.08 L2133.34 1177.08  Z
  " fill="#009af9" fill-rule="evenodd" fill-opacity="1"></path>
<polyline clip-path="url(#clip413)" style="stroke:#000000; stroke-linecap:round; stroke-linejoin:round; stroke-width:4; stroke-opacity:1; fill:none" points="
  2133.34,1177.08 2133.34,1397.54 2162.69,1397.54 2162.69,1177.08 2133.34,1177.08 
  "></polyline>
<path clip-path="url(#clip413)" d="
M2162.69 1254.54 L2162.69 1397.54 L2192.05 1397.54 L2192.05 1254.54 L2162.69 1254.54 L2162.69 1254.54  Z
  " fill="#009af9" fill-rule="evenodd" fill-opacity="1"></path>
<polyline clip-path="url(#clip413)" style="stroke:#000000; stroke-linecap:round; stroke-linejoin:round; stroke-width:4; stroke-opacity:1; fill:none" points="
  2162.69,1254.54 2162.69,1397.54 2192.05,1397.54 2192.05,1254.54 2162.69,1254.54 
  "></polyline>
<path clip-path="url(#clip413)" d="
M2192.05 1272.41 L2192.05 1397.54 L2221.4 1397.54 L2221.4 1272.41 L2192.05 1272.41 L2192.05 1272.41  Z
  " fill="#009af9" fill-rule="evenodd" fill-opacity="1"></path>
<polyline clip-path="url(#clip413)" style="stroke:#000000; stroke-linecap:round; stroke-linejoin:round; stroke-width:4; stroke-opacity:1; fill:none" points="
  2192.05,1272.41 2192.05,1397.54 2221.4,1397.54 2221.4,1272.41 2192.05,1272.41 
  "></polyline>
<path clip-path="url(#clip413)" d="
M2221.4 1266.46 L2221.4 1397.54 L2250.76 1397.54 L2250.76 1266.46 L2221.4 1266.46 L2221.4 1266.46  Z
  " fill="#009af9" fill-rule="evenodd" fill-opacity="1"></path>
<polyline clip-path="url(#clip413)" style="stroke:#000000; stroke-linecap:round; stroke-linejoin:round; stroke-width:4; stroke-opacity:1; fill:none" points="
  2221.4,1266.46 2221.4,1397.54 2250.76,1397.54 2250.76,1266.46 2221.4,1266.46 
  "></polyline>
<path clip-path="url(#clip413)" d="
M2250.76 1320.08 L2250.76 1397.54 L2280.11 1397.54 L2280.11 1320.08 L2250.76 1320.08 L2250.76 1320.08  Z
  " fill="#009af9" fill-rule="evenodd" fill-opacity="1"></path>
<polyline clip-path="url(#clip413)" style="stroke:#000000; stroke-linecap:round; stroke-linejoin:round; stroke-width:4; stroke-opacity:1; fill:none" points="
  2250.76,1320.08 2250.76,1397.54 2280.11,1397.54 2280.11,1320.08 2250.76,1320.08 
  "></polyline>
<path clip-path="url(#clip413)" d="
M2280.11 1332 L2280.11 1397.54 L2309.47 1397.54 L2309.47 1332 L2280.11 1332 L2280.11 1332  Z
  " fill="#009af9" fill-rule="evenodd" fill-opacity="1"></path>
<polyline clip-path="url(#clip413)" style="stroke:#000000; stroke-linecap:round; stroke-linejoin:round; stroke-width:4; stroke-opacity:1; fill:none" points="
  2280.11,1332 2280.11,1397.54 2309.47,1397.54 2309.47,1332 2280.11,1332 
  "></polyline>
<path clip-path="url(#clip413)" d="
M2309.47 1332 L2309.47 1397.54 L2338.82 1397.54 L2338.82 1332 L2309.47 1332 L2309.47 1332  Z
  " fill="#009af9" fill-rule="evenodd" fill-opacity="1"></path>
<polyline clip-path="url(#clip413)" style="stroke:#000000; stroke-linecap:round; stroke-linejoin:round; stroke-width:4; stroke-opacity:1; fill:none" points="
  2309.47,1332 2309.47,1397.54 2338.82,1397.54 2338.82,1332 2309.47,1332 
  "></polyline>
<path clip-path="url(#clip413)" d="
M2338.82 1373.71 L2338.82 1397.54 L2368.17 1397.54 L2368.17 1373.71 L2338.82 1373.71 L2338.82 1373.71  Z
  " fill="#009af9" fill-rule="evenodd" fill-opacity="1"></path>
<polyline clip-path="url(#clip413)" style="stroke:#000000; stroke-linecap:round; stroke-linejoin:round; stroke-width:4; stroke-opacity:1; fill:none" points="
  2338.82,1373.71 2338.82,1397.54 2368.17,1397.54 2368.17,1373.71 2338.82,1373.71 
  "></polyline>
<path clip-path="url(#clip413)" d="
M2368.17 1355.83 L2368.17 1397.54 L2397.53 1397.54 L2397.53 1355.83 L2368.17 1355.83 L2368.17 1355.83  Z
  " fill="#009af9" fill-rule="evenodd" fill-opacity="1"></path>
<polyline clip-path="url(#clip413)" style="stroke:#000000; stroke-linecap:round; stroke-linejoin:round; stroke-width:4; stroke-opacity:1; fill:none" points="
  2368.17,1355.83 2368.17,1397.54 2397.53,1397.54 2397.53,1355.83 2368.17,1355.83 
  "></polyline>
<path clip-path="url(#clip413)" d="
M2397.53 1373.71 L2397.53 1397.54 L2426.88 1397.54 L2426.88 1373.71 L2397.53 1373.71 L2397.53 1373.71  Z
  " fill="#009af9" fill-rule="evenodd" fill-opacity="1"></path>
<polyline clip-path="url(#clip413)" style="stroke:#000000; stroke-linecap:round; stroke-linejoin:round; stroke-width:4; stroke-opacity:1; fill:none" points="
  2397.53,1373.71 2397.53,1397.54 2426.88,1397.54 2426.88,1373.71 2397.53,1373.71 
  "></polyline>
<path clip-path="url(#clip413)" d="
M2426.88 1379.67 L2426.88 1397.54 L2456.24 1397.54 L2456.24 1379.67 L2426.88 1379.67 L2426.88 1379.67  Z
  " fill="#009af9" fill-rule="evenodd" fill-opacity="1"></path>
<polyline clip-path="url(#clip413)" style="stroke:#000000; stroke-linecap:round; stroke-linejoin:round; stroke-width:4; stroke-opacity:1; fill:none" points="
  2426.88,1379.67 2426.88,1397.54 2456.24,1397.54 2456.24,1379.67 2426.88,1379.67 
  "></polyline>
<path clip-path="url(#clip413)" d="
M2456.24 1379.67 L2456.24 1397.54 L2485.59 1397.54 L2485.59 1379.67 L2456.24 1379.67 L2456.24 1379.67  Z
  " fill="#009af9" fill-rule="evenodd" fill-opacity="1"></path>
<polyline clip-path="url(#clip413)" style="stroke:#000000; stroke-linecap:round; stroke-linejoin:round; stroke-width:4; stroke-opacity:1; fill:none" points="
  2456.24,1379.67 2456.24,1397.54 2485.59,1397.54 2485.59,1379.67 2456.24,1379.67 
  "></polyline>
<path clip-path="url(#clip413)" d="
M2485.59 1385.63 L2485.59 1397.54 L2514.95 1397.54 L2514.95 1385.63 L2485.59 1385.63 L2485.59 1385.63  Z
  " fill="#009af9" fill-rule="evenodd" fill-opacity="1"></path>
<polyline clip-path="url(#clip413)" style="stroke:#000000; stroke-linecap:round; stroke-linejoin:round; stroke-width:4; stroke-opacity:1; fill:none" points="
  2485.59,1385.63 2485.59,1397.54 2514.95,1397.54 2514.95,1385.63 2485.59,1385.63 
  "></polyline>
<path clip-path="url(#clip413)" d="
M2514.95 1367.75 L2514.95 1397.54 L2544.3 1397.54 L2544.3 1367.75 L2514.95 1367.75 L2514.95 1367.75  Z
  " fill="#009af9" fill-rule="evenodd" fill-opacity="1"></path>
<polyline clip-path="url(#clip413)" style="stroke:#000000; stroke-linecap:round; stroke-linejoin:round; stroke-width:4; stroke-opacity:1; fill:none" points="
  2514.95,1367.75 2514.95,1397.54 2544.3,1397.54 2544.3,1367.75 2514.95,1367.75 
  "></polyline>
<path clip-path="url(#clip413)" d="
M2544.3 1397.54 L2544.3 1397.54 L2573.66 1397.54 L2573.66 1397.54 L2544.3 1397.54 L2544.3 1397.54  Z
  " fill="#009af9" fill-rule="evenodd" fill-opacity="1"></path>
<polyline clip-path="url(#clip413)" style="stroke:#000000; stroke-linecap:round; stroke-linejoin:round; stroke-width:4; stroke-opacity:1; fill:none" points="
  2544.3,1397.54 2544.3,1397.54 2573.66,1397.54 2544.3,1397.54 
  "></polyline>
<path clip-path="url(#clip413)" d="
M2573.66 1391.59 L2573.66 1397.54 L2603.01 1397.54 L2603.01 1391.59 L2573.66 1391.59 L2573.66 1391.59  Z
  " fill="#009af9" fill-rule="evenodd" fill-opacity="1"></path>
<polyline clip-path="url(#clip413)" style="stroke:#000000; stroke-linecap:round; stroke-linejoin:round; stroke-width:4; stroke-opacity:1; fill:none" points="
  2573.66,1391.59 2573.66,1397.54 2603.01,1397.54 2603.01,1391.59 2573.66,1391.59 
  "></polyline>
<path clip-path="url(#clip413)" d="
M2603.01 1391.59 L2603.01 1397.54 L2632.37 1397.54 L2632.37 1391.59 L2603.01 1391.59 L2603.01 1391.59  Z
  " fill="#009af9" fill-rule="evenodd" fill-opacity="1"></path>
<polyline clip-path="url(#clip413)" style="stroke:#000000; stroke-linecap:round; stroke-linejoin:round; stroke-width:4; stroke-opacity:1; fill:none" points="
  2603.01,1391.59 2603.01,1397.54 2632.37,1397.54 2632.37,1391.59 2603.01,1391.59 
  "></polyline>
<path clip-path="url(#clip413)" d="
M2632.37 1397.54 L2632.37 1397.54 L2661.72 1397.54 L2661.72 1397.54 L2632.37 1397.54 L2632.37 1397.54  Z
  " fill="#009af9" fill-rule="evenodd" fill-opacity="1"></path>
<polyline clip-path="url(#clip413)" style="stroke:#000000; stroke-linecap:round; stroke-linejoin:round; stroke-width:4; stroke-opacity:1; fill:none" points="
  2632.37,1397.54 2632.37,1397.54 2661.72,1397.54 2632.37,1397.54 
  "></polyline>
<path clip-path="url(#clip413)" d="
M2661.72 1391.59 L2661.72 1397.54 L2691.08 1397.54 L2691.08 1391.59 L2661.72 1391.59 L2661.72 1391.59  Z
  " fill="#009af9" fill-rule="evenodd" fill-opacity="1"></path>
<polyline clip-path="url(#clip413)" style="stroke:#000000; stroke-linecap:round; stroke-linejoin:round; stroke-width:4; stroke-opacity:1; fill:none" points="
  2661.72,1391.59 2661.72,1397.54 2691.08,1397.54 2691.08,1391.59 2661.72,1391.59 
  "></polyline>
<circle clip-path="url(#clip413)" style="fill:#009af9; stroke:none; fill-opacity:0" cx="1707.69" cy="1272.41" r="2"></circle>
<circle clip-path="url(#clip413)" style="fill:#009af9; stroke:none; fill-opacity:0" cx="1737.05" cy="759.972" r="2"></circle>
<circle clip-path="url(#clip413)" style="fill:#009af9; stroke:none; fill-opacity:0" cx="1766.4" cy="432.248" r="2"></circle>
<circle clip-path="url(#clip413)" style="fill:#009af9; stroke:none; fill-opacity:0" cx="1795.76" cy="265.407" r="2"></circle>
<circle clip-path="url(#clip413)" style="fill:#009af9; stroke:none; fill-opacity:0" cx="1825.11" cy="152.193" r="2"></circle>
<circle clip-path="url(#clip413)" style="fill:#009af9; stroke:none; fill-opacity:0" cx="1854.47" cy="396.496" r="2"></circle>
<circle clip-path="url(#clip413)" style="fill:#009af9; stroke:none; fill-opacity:0" cx="1883.82" cy="259.448" r="2"></circle>
<circle clip-path="url(#clip413)" style="fill:#009af9; stroke:none; fill-opacity:0" cx="1913.18" cy="533.545" r="2"></circle>
<circle clip-path="url(#clip413)" style="fill:#009af9; stroke:none; fill-opacity:0" cx="1942.53" cy="479.917" r="2"></circle>
<circle clip-path="url(#clip413)" style="fill:#009af9; stroke:none; fill-opacity:0" cx="1971.89" cy="718.262" r="2"></circle>
<circle clip-path="url(#clip413)" style="fill:#009af9; stroke:none; fill-opacity:0" cx="2001.24" cy="807.641" r="2"></circle>
<circle clip-path="url(#clip413)" style="fill:#009af9; stroke:none; fill-opacity:0" cx="2030.6" cy="897.021" r="2"></circle>
<circle clip-path="url(#clip413)" style="fill:#009af9; stroke:none; fill-opacity:0" cx="2059.95" cy="855.31" r="2"></circle>
<circle clip-path="url(#clip413)" style="fill:#009af9; stroke:none; fill-opacity:0" cx="2089.31" cy="1040.03" r="2"></circle>
<circle clip-path="url(#clip413)" style="fill:#009af9; stroke:none; fill-opacity:0" cx="2118.66" cy="1188.99" r="2"></circle>
<circle clip-path="url(#clip413)" style="fill:#009af9; stroke:none; fill-opacity:0" cx="2148.01" cy="1177.08" r="2"></circle>
<circle clip-path="url(#clip413)" style="fill:#009af9; stroke:none; fill-opacity:0" cx="2177.37" cy="1254.54" r="2"></circle>
<circle clip-path="url(#clip413)" style="fill:#009af9; stroke:none; fill-opacity:0" cx="2206.72" cy="1272.41" r="2"></circle>
<circle clip-path="url(#clip413)" style="fill:#009af9; stroke:none; fill-opacity:0" cx="2236.08" cy="1266.46" r="2"></circle>
<circle clip-path="url(#clip413)" style="fill:#009af9; stroke:none; fill-opacity:0" cx="2265.43" cy="1320.08" r="2"></circle>
<circle clip-path="url(#clip413)" style="fill:#009af9; stroke:none; fill-opacity:0" cx="2294.79" cy="1332" r="2"></circle>
<circle clip-path="url(#clip413)" style="fill:#009af9; stroke:none; fill-opacity:0" cx="2324.14" cy="1332" r="2"></circle>
<circle clip-path="url(#clip413)" style="fill:#009af9; stroke:none; fill-opacity:0" cx="2353.5" cy="1373.71" r="2"></circle>
<circle clip-path="url(#clip413)" style="fill:#009af9; stroke:none; fill-opacity:0" cx="2382.85" cy="1355.83" r="2"></circle>
<circle clip-path="url(#clip413)" style="fill:#009af9; stroke:none; fill-opacity:0" cx="2412.21" cy="1373.71" r="2"></circle>
<circle clip-path="url(#clip413)" style="fill:#009af9; stroke:none; fill-opacity:0" cx="2441.56" cy="1379.67" r="2"></circle>
<circle clip-path="url(#clip413)" style="fill:#009af9; stroke:none; fill-opacity:0" cx="2470.92" cy="1379.67" r="2"></circle>
<circle clip-path="url(#clip413)" style="fill:#009af9; stroke:none; fill-opacity:0" cx="2500.27" cy="1385.63" r="2"></circle>
<circle clip-path="url(#clip413)" style="fill:#009af9; stroke:none; fill-opacity:0" cx="2529.63" cy="1367.75" r="2"></circle>
<circle clip-path="url(#clip413)" style="fill:#009af9; stroke:none; fill-opacity:0" cx="2558.98" cy="1397.54" r="2"></circle>
<circle clip-path="url(#clip413)" style="fill:#009af9; stroke:none; fill-opacity:0" cx="2588.33" cy="1391.59" r="2"></circle>
<circle clip-path="url(#clip413)" style="fill:#009af9; stroke:none; fill-opacity:0" cx="2617.69" cy="1391.59" r="2"></circle>
<circle clip-path="url(#clip413)" style="fill:#009af9; stroke:none; fill-opacity:0" cx="2647.04" cy="1397.54" r="2"></circle>
<circle clip-path="url(#clip413)" style="fill:#009af9; stroke:none; fill-opacity:0" cx="2676.4" cy="1391.59" r="2"></circle>
<polyline clip-path="url(#clip413)" style="stroke:#e26f46; stroke-linecap:round; stroke-linejoin:round; stroke-width:8; stroke-opacity:1; fill:none" points="
  1921.27,2754.98 1921.27,-1205.24 
  "></polyline>
</svg>